<svg width="50" height="50" viewBox="0 0 50 50" fill="none" xmlns="http://www.w3.org/2000/svg">
<rect width="50" height="50" fill="#1A0C6D"/>
<path d="M34.056 29.1488V32.2742C34.056 33.1494 34.056 34.2495 34.1058 35.0746C34.1807 36.3498 34.4551 36.7499 35.6523 37.0749L35.5775 37.75C34.6047 37.675 33.7068 37.675 33.0832 37.675C32.4596 37.675 31.7861 37.675 30.8133 37.75L30.7385 37.1249C31.7362 36.7249 31.9108 36.1748 31.9857 35.0746C32.0605 34.2495 32.0605 33.1494 32.0605 32.2742V25.6233C32.0605 24.7482 32.0605 23.648 31.9857 22.8229C31.9108 21.7227 31.7362 21.1727 30.7385 20.7726L30.8133 20.1475C31.7861 20.2225 32.4596 20.2225 33.0832 20.2225H37.6727C38.6954 20.2225 39.4687 20.2225 40.4415 20.1475C40.6161 21.4227 40.7158 22.3478 40.7907 23.723L40.0673 23.848C39.743 22.9229 39.4687 22.3978 39.0945 21.9978C38.7204 21.5977 38.1467 21.3977 37.6727 21.3227C37.0492 21.2227 36.3258 21.1977 35.5276 21.1977C34.3553 21.1977 34.1557 21.3977 34.1058 22.3978C34.056 23.223 34.056 24.1981 34.056 25.0982V28.1737C34.929 28.1737 36.1761 28.1486 36.9993 28.0486C38.1217 27.9236 38.4709 27.5236 38.8451 26.3734L39.4687 26.4984C39.3938 27.4736 39.3938 28.0236 39.3938 28.6487C39.3938 29.2738 39.3938 29.8489 39.4687 30.824L38.8451 30.949C38.4709 29.7989 38.1217 29.3988 36.9993 29.2738C36.1761 29.1738 34.929 29.1488 34.056 29.1488Z" fill="white"/>
<path d="M9.31972 29.1332L9.24976 28.5381C10.1876 28.1579 10.3521 27.6339 10.4221 26.5856C10.4921 25.8004 10.4921 24.7522 10.4921 23.919V17.5893C10.4921 16.7561 10.4921 15.7078 10.4221 14.9226C10.3521 13.8744 10.1876 13.3522 9.24976 12.9702L9.31972 12.375C10.2349 12.446 10.8664 12.446 11.4526 12.446H15.7657C16.7262 12.446 17.4543 12.446 18.3676 12.375C18.5321 13.5883 18.6247 14.4695 18.6966 15.7789L18.0158 15.8979C17.7114 15.0167 17.4524 14.5175 17.1006 14.1355C16.749 13.7534 16.21 13.5634 15.7638 13.4923C15.1776 13.3964 14.6614 13.3733 13.7481 13.3733C12.6458 13.3733 12.5058 13.5634 12.4359 14.5156C12.3659 15.2528 12.3659 16.111 12.3659 16.9672V20.014C13.1639 20.014 14.8051 19.966 15.5539 19.895C16.609 19.7759 16.938 19.3959 17.2898 18.2996L17.8532 18.4186C17.7833 19.3479 17.7833 19.87 17.7833 20.4652C17.7833 21.0603 17.7833 21.6075 17.8532 22.5367L17.2898 22.6557C16.938 21.5614 16.609 21.2043 15.5539 21.0603C14.8032 20.9643 13.1393 20.9413 12.3659 20.9413V24.1551C12.3659 24.9883 12.4132 26.2746 12.4359 26.7507C12.4831 27.9179 12.8821 28.1311 13.9372 28.1311C14.9923 28.1311 15.7903 28.108 16.4219 28.012C17.2425 27.893 17.6169 27.559 17.9685 27.0598C18.2503 26.6067 18.4848 26.1075 18.7892 25.2263L19.4226 25.3454C19.3054 26.7738 19.1182 27.941 18.8592 29.1774C17.1479 29.0814 15.015 29.0583 12.0123 29.0583C10.8627 29.0583 10.2311 29.0583 9.31594 29.1294L9.31972 29.1332Z" fill="white"/>
<path d="M28.3514 14.0348C28.9147 14.6754 29.1245 15.4804 29.1245 16.3581C29.1245 18.6814 27.4367 20.3413 25.3748 20.3413C24.3201 20.3413 23.5472 20.0334 22.8667 19.4636C22.141 20.0334 21.9766 20.5784 21.9766 21.1233C21.9766 21.8117 22.5152 22.2611 23.5698 22.3089L26.4048 22.4045C28.6784 22.4753 29.7784 23.8501 29.7784 25.6285C29.7784 27.7625 27.6918 29.6346 24.4355 29.6346C21.7876 29.6346 20.4513 28.449 20.4513 26.837C20.4513 25.7222 20.99 24.8445 22.3262 23.9209C21.3189 23.5652 20.6385 22.7831 20.6385 21.6683C20.6385 20.7428 21.0599 19.7944 22.2563 18.8707C21.7177 18.1365 21.4587 17.3773 21.4587 16.3581C21.4587 14.1285 23.2164 12.375 25.2783 12.375C26.6373 12.375 26.9888 12.8492 28.325 12.8492C28.9109 12.8492 29.7311 12.8263 30.5514 12.7536L30.7385 13.1571L30.5514 14.0348H28.3476H28.3514ZM25.9852 24.2058C24.9306 24.2058 24.0877 24.2058 23.1257 24.1351C22.3054 24.9172 21.9766 25.6992 21.9766 26.4354C21.9766 27.4546 22.8441 28.3094 24.8115 28.3094C27.5067 28.3094 28.4913 27.1468 28.4913 26.0338C28.4913 24.921 27.741 24.2077 25.9833 24.2077L25.9852 24.2058ZM23.2675 16.2147C23.2675 18.3009 24.065 19.3928 25.3767 19.3928C26.5956 19.3928 27.346 18.5629 27.346 16.4767C27.346 14.509 26.5257 13.3235 25.2368 13.3235C24.0877 13.3235 23.2675 14.2241 23.2675 16.2166V16.2147Z" fill="white"/>
</svg>
