<svg width="508" height="537" viewBox="0 0 508 537" fill="none" xmlns="http://www.w3.org/2000/svg">
<path d="M191.311 424V414.926H194.613C195.453 414.926 196.095 415.156 196.537 415.615C196.979 416.074 197.2 416.716 197.2 417.539C197.2 418.362 196.979 419.004 196.537 419.463C196.095 419.922 195.453 420.152 194.613 420.152H192.403V424H191.311ZM192.403 419.203H194.587C195.046 419.203 195.401 419.09 195.653 418.865C195.913 418.631 196.043 418.302 196.043 417.877V417.201C196.043 416.776 195.913 416.451 195.653 416.226C195.401 415.992 195.046 415.875 194.587 415.875H192.403V419.203ZM198.937 423.116H200.9V418.176H198.937V417.292H201.94V418.982H202.005C202.143 418.453 202.403 418.042 202.785 417.747C203.175 417.444 203.669 417.292 204.267 417.292H205.203V418.332H203.942C203.344 418.332 202.858 418.505 202.486 418.852C202.122 419.199 201.94 419.654 201.94 420.217V423.116H204.54V424H198.937V423.116ZM209.63 424.156C209.162 424.156 208.738 424.074 208.356 423.909C207.984 423.744 207.663 423.51 207.394 423.207C207.134 422.895 206.935 422.527 206.796 422.102C206.658 421.669 206.588 421.183 206.588 420.646C206.588 420.117 206.658 419.636 206.796 419.203C206.935 418.77 207.134 418.401 207.394 418.098C207.663 417.786 207.984 417.548 208.356 417.383C208.738 417.218 209.162 417.136 209.63 417.136C210.098 417.136 210.519 417.218 210.891 417.383C211.273 417.548 211.593 417.786 211.853 418.098C212.122 418.401 212.326 418.77 212.464 419.203C212.603 419.636 212.672 420.117 212.672 420.646C212.672 421.183 212.603 421.669 212.464 422.102C212.326 422.527 212.122 422.895 211.853 423.207C211.593 423.51 211.273 423.744 210.891 423.909C210.519 424.074 210.098 424.156 209.63 424.156ZM209.63 423.259C210.211 423.259 210.679 423.086 211.034 422.739C211.39 422.392 211.567 421.855 211.567 421.127V420.165C211.567 419.437 211.39 418.9 211.034 418.553C210.679 418.206 210.211 418.033 209.63 418.033C209.05 418.033 208.582 418.206 208.226 418.553C207.871 418.9 207.693 419.437 207.693 420.165V421.127C207.693 421.855 207.871 422.392 208.226 422.739C208.582 423.086 209.05 423.259 209.63 423.259ZM216.762 424L214.357 417.292H215.41L216.372 420.1L217.412 423.129H217.464L218.504 420.1L219.466 417.292H220.493L218.088 424H216.762ZM225.636 415.81C225.333 415.81 225.121 415.749 224.999 415.628C224.878 415.498 224.817 415.338 224.817 415.147V414.939C224.817 414.748 224.878 414.592 224.999 414.471C225.121 414.341 225.333 414.276 225.636 414.276C225.94 414.276 226.152 414.341 226.273 414.471C226.395 414.592 226.455 414.748 226.455 414.939V415.147C226.455 415.338 226.395 415.498 226.273 415.628C226.152 415.749 225.94 415.81 225.636 415.81ZM222.698 423.116H225.116V418.176H222.698V417.292H226.156V423.116H228.418V424H222.698V423.116ZM234.64 422.908H234.588C234.155 423.74 233.466 424.156 232.521 424.156C231.698 424.156 231.052 423.848 230.584 423.233C230.125 422.618 229.895 421.755 229.895 420.646C229.895 419.537 230.125 418.674 230.584 418.059C231.052 417.444 231.698 417.136 232.521 417.136C233.466 417.136 234.155 417.552 234.588 418.384H234.64V414.38H235.68V424H234.64V422.908ZM232.924 423.233C233.158 423.233 233.379 423.203 233.587 423.142C233.795 423.081 233.977 422.995 234.133 422.882C234.289 422.761 234.411 422.618 234.497 422.453C234.593 422.28 234.64 422.08 234.64 421.855V419.437C234.64 419.212 234.593 419.017 234.497 418.852C234.411 418.679 234.289 418.536 234.133 418.423C233.977 418.302 233.795 418.211 233.587 418.15C233.379 418.089 233.158 418.059 232.924 418.059C232.318 418.059 231.845 418.245 231.507 418.618C231.178 418.982 231.013 419.467 231.013 420.074V421.218C231.013 421.825 231.178 422.314 231.507 422.687C231.845 423.051 232.318 423.233 232.924 423.233ZM240.927 424.156C240.442 424.156 240.004 424.074 239.614 423.909C239.233 423.744 238.903 423.51 238.626 423.207C238.357 422.895 238.149 422.527 238.002 422.102C237.855 421.669 237.781 421.188 237.781 420.659C237.781 420.122 237.855 419.636 238.002 419.203C238.158 418.77 238.37 418.401 238.639 418.098C238.908 417.786 239.228 417.548 239.601 417.383C239.982 417.218 240.403 417.136 240.862 417.136C241.313 417.136 241.72 417.218 242.084 417.383C242.457 417.548 242.773 417.777 243.033 418.072C243.293 418.358 243.492 418.7 243.631 419.099C243.77 419.498 243.839 419.935 243.839 420.412V420.906H238.873V421.218C238.873 421.513 238.921 421.786 239.016 422.037C239.111 422.288 239.246 422.505 239.419 422.687C239.601 422.869 239.818 423.012 240.069 423.116C240.329 423.211 240.615 423.259 240.927 423.259C241.378 423.259 241.768 423.155 242.097 422.947C242.426 422.739 242.678 422.453 242.851 422.089L243.618 422.609C243.419 423.06 243.085 423.432 242.617 423.727C242.158 424.013 241.594 424.156 240.927 424.156ZM240.862 417.994C240.576 417.994 240.312 418.046 240.069 418.15C239.826 418.254 239.614 418.397 239.432 418.579C239.259 418.761 239.12 418.978 239.016 419.229C238.921 419.472 238.873 419.74 238.873 420.035V420.126H242.721V419.983C242.721 419.688 242.673 419.42 242.578 419.177C242.491 418.934 242.366 418.726 242.201 418.553C242.045 418.371 241.85 418.232 241.616 418.137C241.391 418.042 241.139 417.994 240.862 417.994ZM248.683 424.156C247.981 424.156 247.374 424.039 246.863 423.805C246.36 423.562 245.931 423.242 245.576 422.843L246.278 422.232C246.599 422.57 246.95 422.83 247.331 423.012C247.712 423.194 248.172 423.285 248.709 423.285C249.229 423.285 249.654 423.194 249.983 423.012C250.321 422.821 250.49 422.527 250.49 422.128C250.49 421.955 250.455 421.812 250.386 421.699C250.325 421.578 250.239 421.482 250.126 421.413C250.013 421.344 249.888 421.292 249.749 421.257C249.61 421.214 249.463 421.179 249.307 421.153L248.254 420.997C248.02 420.962 247.764 420.915 247.487 420.854C247.218 420.793 246.971 420.698 246.746 420.568C246.521 420.429 246.33 420.247 246.174 420.022C246.027 419.797 245.953 419.502 245.953 419.138C245.953 418.8 246.018 418.51 246.148 418.267C246.287 418.016 246.477 417.808 246.72 417.643C246.963 417.47 247.249 417.344 247.578 417.266C247.907 417.179 248.267 417.136 248.657 417.136C249.264 417.136 249.788 417.231 250.23 417.422C250.681 417.613 251.066 417.877 251.387 418.215L250.711 418.852C250.633 418.757 250.533 418.661 250.412 418.566C250.299 418.462 250.156 418.371 249.983 418.293C249.818 418.206 249.623 418.137 249.398 418.085C249.173 418.033 248.913 418.007 248.618 418.007C248.089 418.007 247.682 418.098 247.396 418.28C247.119 418.462 246.98 418.726 246.98 419.073C246.98 419.246 247.01 419.394 247.071 419.515C247.14 419.628 247.231 419.719 247.344 419.788C247.457 419.857 247.582 419.914 247.721 419.957C247.868 419.992 248.016 420.022 248.163 420.048L249.216 420.204C249.459 420.239 249.714 420.286 249.983 420.347C250.252 420.408 250.499 420.507 250.724 420.646C250.949 420.776 251.136 420.954 251.283 421.179C251.439 421.404 251.517 421.699 251.517 422.063C251.517 422.73 251.257 423.246 250.737 423.61C250.226 423.974 249.541 424.156 248.683 424.156ZM260.997 424V417.292H261.959V418.072H262.011C262.115 417.812 262.262 417.591 262.453 417.409C262.644 417.227 262.925 417.136 263.298 417.136C263.688 417.136 263.978 417.236 264.169 417.435C264.36 417.626 264.477 417.877 264.52 418.189H264.559C264.68 417.886 264.854 417.634 265.079 417.435C265.304 417.236 265.616 417.136 266.015 417.136C266.561 417.136 266.925 417.327 267.107 417.708C267.298 418.089 267.393 418.635 267.393 419.346V424H266.431V419.515C266.431 418.943 266.37 418.549 266.249 418.332C266.136 418.107 265.924 417.994 265.612 417.994C265.335 417.994 265.109 418.085 264.936 418.267C264.763 418.44 264.676 418.709 264.676 419.073V424H263.714V419.515C263.714 418.943 263.653 418.549 263.532 418.332C263.419 418.107 263.211 417.994 262.908 417.994C262.631 417.994 262.401 418.085 262.219 418.267C262.046 418.44 261.959 418.709 261.959 419.073V424H260.997ZM271.99 424.156C271.522 424.156 271.097 424.074 270.716 423.909C270.343 423.744 270.023 423.51 269.754 423.207C269.494 422.895 269.295 422.527 269.156 422.102C269.017 421.669 268.948 421.183 268.948 420.646C268.948 420.117 269.017 419.636 269.156 419.203C269.295 418.77 269.494 418.401 269.754 418.098C270.023 417.786 270.343 417.548 270.716 417.383C271.097 417.218 271.522 417.136 271.99 417.136C272.458 417.136 272.878 417.218 273.251 417.383C273.632 417.548 273.953 417.786 274.213 418.098C274.482 418.401 274.685 418.77 274.824 419.203C274.963 419.636 275.032 420.117 275.032 420.646C275.032 421.183 274.963 421.669 274.824 422.102C274.685 422.527 274.482 422.895 274.213 423.207C273.953 423.51 273.632 423.744 273.251 423.909C272.878 424.074 272.458 424.156 271.99 424.156ZM271.99 423.259C272.571 423.259 273.039 423.086 273.394 422.739C273.749 422.392 273.927 421.855 273.927 421.127V420.165C273.927 419.437 273.749 418.9 273.394 418.553C273.039 418.206 272.571 418.033 271.99 418.033C271.409 418.033 270.941 418.206 270.586 418.553C270.231 418.9 270.053 419.437 270.053 420.165V421.127C270.053 421.855 270.231 422.392 270.586 422.739C270.941 423.086 271.409 423.259 271.99 423.259ZM281.41 422.908H281.358C280.924 423.74 280.235 424.156 279.291 424.156C278.467 424.156 277.822 423.848 277.354 423.233C276.894 422.618 276.665 421.755 276.665 420.646C276.665 419.537 276.894 418.674 277.354 418.059C277.822 417.444 278.467 417.136 279.291 417.136C280.235 417.136 280.924 417.552 281.358 418.384H281.41V414.38H282.45V424H281.41V422.908ZM279.694 423.233C279.928 423.233 280.149 423.203 280.357 423.142C280.565 423.081 280.747 422.995 280.903 422.882C281.059 422.761 281.18 422.618 281.267 422.453C281.362 422.28 281.41 422.08 281.41 421.855V419.437C281.41 419.212 281.362 419.017 281.267 418.852C281.18 418.679 281.059 418.536 280.903 418.423C280.747 418.302 280.565 418.211 280.357 418.15C280.149 418.089 279.928 418.059 279.694 418.059C279.087 418.059 278.615 418.245 278.277 418.618C277.947 418.982 277.783 419.467 277.783 420.074V421.218C277.783 421.825 277.947 422.314 278.277 422.687C278.615 423.051 279.087 423.233 279.694 423.233ZM289.166 422.908H289.114C289.044 423.073 288.958 423.233 288.854 423.389C288.75 423.536 288.62 423.666 288.464 423.779C288.316 423.892 288.139 423.983 287.931 424.052C287.723 424.121 287.48 424.156 287.203 424.156C286.501 424.156 285.937 423.935 285.513 423.493C285.088 423.042 284.876 422.41 284.876 421.595V417.292H285.916V421.413C285.916 422.028 286.05 422.488 286.319 422.791C286.587 423.086 286.982 423.233 287.502 423.233C287.71 423.233 287.913 423.207 288.113 423.155C288.312 423.103 288.49 423.025 288.646 422.921C288.802 422.817 288.927 422.687 289.023 422.531C289.118 422.366 289.166 422.171 289.166 421.946V417.292H290.206V424H289.166V422.908ZM292.515 423.116H294.855V415.264H292.515V414.38H295.895V423.116H298.235V424H292.515V423.116ZM305.705 424C305.297 424 305.007 423.896 304.834 423.688C304.66 423.48 304.552 423.22 304.509 422.908H304.444C304.296 423.298 304.058 423.606 303.729 423.831C303.408 424.048 302.975 424.156 302.429 424.156C301.727 424.156 301.168 423.974 300.752 423.61C300.336 423.246 300.128 422.748 300.128 422.115C300.128 421.491 300.353 421.01 300.804 420.672C301.263 420.334 302 420.165 303.014 420.165H304.444V419.502C304.444 419.008 304.305 418.64 304.028 418.397C303.75 418.146 303.356 418.02 302.845 418.02C302.394 418.02 302.026 418.111 301.74 418.293C301.454 418.466 301.224 418.705 301.051 419.008L300.349 418.488C300.435 418.315 300.552 418.146 300.7 417.981C300.847 417.816 301.029 417.673 301.246 417.552C301.462 417.422 301.709 417.322 301.987 417.253C302.264 417.175 302.572 417.136 302.91 417.136C303.698 417.136 304.322 417.335 304.782 417.734C305.25 418.133 305.484 418.687 305.484 419.398V423.09H306.42V424H305.705ZM302.611 423.285C302.879 423.285 303.122 423.255 303.339 423.194C303.564 423.125 303.759 423.038 303.924 422.934C304.088 422.821 304.214 422.691 304.301 422.544C304.396 422.388 304.444 422.223 304.444 422.05V420.945H303.014C302.39 420.945 301.935 421.032 301.649 421.205C301.363 421.378 301.22 421.63 301.22 421.959V422.232C301.22 422.579 301.341 422.843 301.584 423.025C301.835 423.198 302.177 423.285 302.611 423.285ZM308.065 423.116H310.028V418.176H308.065V417.292H311.068V418.982H311.133C311.272 418.453 311.532 418.042 311.913 417.747C312.303 417.444 312.797 417.292 313.395 417.292H314.331V418.332H313.07C312.472 418.332 311.987 418.505 311.614 418.852C311.25 419.199 311.068 419.654 311.068 420.217V423.116H313.668V424H308.065V423.116ZM182.426 439.156C181.724 439.156 181.118 439.039 180.606 438.805C180.104 438.562 179.675 438.242 179.319 437.843L180.021 437.232C180.342 437.57 180.693 437.83 181.074 438.012C181.456 438.194 181.915 438.285 182.452 438.285C182.972 438.285 183.397 438.194 183.726 438.012C184.064 437.821 184.233 437.527 184.233 437.128C184.233 436.955 184.199 436.812 184.129 436.699C184.069 436.578 183.982 436.482 183.869 436.413C183.757 436.344 183.631 436.292 183.492 436.257C183.354 436.214 183.206 436.179 183.05 436.153L181.997 435.997C181.763 435.962 181.508 435.915 181.23 435.854C180.962 435.793 180.715 435.698 180.489 435.568C180.264 435.429 180.073 435.247 179.917 435.022C179.77 434.797 179.696 434.502 179.696 434.138C179.696 433.8 179.761 433.51 179.891 433.267C180.03 433.016 180.221 432.808 180.463 432.643C180.706 432.47 180.992 432.344 181.321 432.266C181.651 432.179 182.01 432.136 182.4 432.136C183.007 432.136 183.531 432.231 183.973 432.422C184.424 432.613 184.81 432.877 185.13 433.215L184.454 433.852C184.376 433.757 184.277 433.661 184.155 433.566C184.043 433.462 183.9 433.371 183.726 433.293C183.562 433.206 183.367 433.137 183.141 433.085C182.916 433.033 182.656 433.007 182.361 433.007C181.833 433.007 181.425 433.098 181.139 433.28C180.862 433.462 180.723 433.726 180.723 434.073C180.723 434.246 180.754 434.394 180.814 434.515C180.884 434.628 180.975 434.719 181.087 434.788C181.2 434.857 181.326 434.914 181.464 434.957C181.612 434.992 181.759 435.022 181.906 435.048L182.959 435.204C183.202 435.239 183.458 435.286 183.726 435.347C183.995 435.408 184.242 435.507 184.467 435.646C184.693 435.776 184.879 435.954 185.026 436.179C185.182 436.404 185.26 436.699 185.26 437.063C185.26 437.73 185 438.246 184.48 438.61C183.969 438.974 183.284 439.156 182.426 439.156ZM190.26 439.156C189.775 439.156 189.337 439.074 188.947 438.909C188.566 438.744 188.236 438.51 187.959 438.207C187.69 437.895 187.482 437.527 187.335 437.102C187.188 436.669 187.114 436.188 187.114 435.659C187.114 435.122 187.188 434.636 187.335 434.203C187.491 433.77 187.703 433.401 187.972 433.098C188.241 432.786 188.561 432.548 188.934 432.383C189.315 432.218 189.736 432.136 190.195 432.136C190.646 432.136 191.053 432.218 191.417 432.383C191.79 432.548 192.106 432.777 192.366 433.072C192.626 433.358 192.825 433.7 192.964 434.099C193.103 434.498 193.172 434.935 193.172 435.412V435.906H188.206V436.218C188.206 436.513 188.254 436.786 188.349 437.037C188.444 437.288 188.579 437.505 188.752 437.687C188.934 437.869 189.151 438.012 189.402 438.116C189.662 438.211 189.948 438.259 190.26 438.259C190.711 438.259 191.101 438.155 191.43 437.947C191.759 437.739 192.011 437.453 192.184 437.089L192.951 437.609C192.752 438.06 192.418 438.432 191.95 438.727C191.491 439.013 190.927 439.156 190.26 439.156ZM190.195 432.994C189.909 432.994 189.645 433.046 189.402 433.15C189.159 433.254 188.947 433.397 188.765 433.579C188.592 433.761 188.453 433.978 188.349 434.229C188.254 434.472 188.206 434.74 188.206 435.035V435.126H192.054V434.983C192.054 434.688 192.006 434.42 191.911 434.177C191.824 433.934 191.699 433.726 191.534 433.553C191.378 433.371 191.183 433.232 190.949 433.137C190.724 433.042 190.472 432.994 190.195 432.994ZM195.039 438.116H197.002V433.176H195.039V432.292H198.042V433.982H198.107C198.246 433.453 198.506 433.042 198.887 432.747C199.277 432.444 199.771 432.292 200.369 432.292H201.305V433.332H200.044C199.446 433.332 198.961 433.505 198.588 433.852C198.224 434.199 198.042 434.654 198.042 435.217V438.116H200.642V439H195.039V438.116ZM205.07 439L202.665 432.292H203.718L204.68 435.1L205.72 438.129H205.772L206.812 435.1L207.774 432.292H208.801L206.396 439H205.07ZM213.944 430.81C213.641 430.81 213.428 430.749 213.307 430.628C213.186 430.498 213.125 430.338 213.125 430.147V429.939C213.125 429.748 213.186 429.592 213.307 429.471C213.428 429.341 213.641 429.276 213.944 429.276C214.247 429.276 214.46 429.341 214.581 429.471C214.702 429.592 214.763 429.748 214.763 429.939V430.147C214.763 430.338 214.702 430.498 214.581 430.628C214.46 430.749 214.247 430.81 213.944 430.81ZM211.006 438.116H213.424V433.176H211.006V432.292H214.464V438.116H216.726V439H211.006V438.116ZM221.557 439.156C221.072 439.156 220.638 439.074 220.257 438.909C219.884 438.736 219.568 438.497 219.308 438.194C219.048 437.891 218.849 437.522 218.71 437.089C218.58 436.656 218.515 436.175 218.515 435.646C218.515 435.117 218.584 434.636 218.723 434.203C218.862 433.77 219.061 433.401 219.321 433.098C219.581 432.786 219.897 432.548 220.27 432.383C220.643 432.218 221.067 432.136 221.544 432.136C222.194 432.136 222.723 432.279 223.13 432.565C223.537 432.851 223.836 433.224 224.027 433.683L223.195 434.125C223.074 433.778 222.87 433.51 222.584 433.319C222.307 433.128 221.96 433.033 221.544 433.033C221.241 433.033 220.968 433.085 220.725 433.189C220.491 433.284 220.292 433.423 220.127 433.605C219.962 433.787 219.837 434.004 219.75 434.255C219.672 434.506 219.633 434.779 219.633 435.074V436.218C219.633 436.513 219.672 436.786 219.75 437.037C219.837 437.288 219.962 437.505 220.127 437.687C220.292 437.869 220.495 438.012 220.738 438.116C220.981 438.211 221.258 438.259 221.57 438.259C222.021 438.259 222.393 438.155 222.688 437.947C222.983 437.739 223.217 437.453 223.39 437.089L224.131 437.596C223.932 438.047 223.62 438.419 223.195 438.714C222.779 439.009 222.233 439.156 221.557 439.156ZM229.235 439.156C228.749 439.156 228.312 439.074 227.922 438.909C227.54 438.744 227.211 438.51 226.934 438.207C226.665 437.895 226.457 437.527 226.31 437.102C226.162 436.669 226.089 436.188 226.089 435.659C226.089 435.122 226.162 434.636 226.31 434.203C226.466 433.77 226.678 433.401 226.947 433.098C227.215 432.786 227.536 432.548 227.909 432.383C228.29 432.218 228.71 432.136 229.17 432.136C229.62 432.136 230.028 432.218 230.392 432.383C230.764 432.548 231.081 432.777 231.341 433.072C231.601 433.358 231.8 433.7 231.939 434.099C232.077 434.498 232.147 434.935 232.147 435.412V435.906H227.181V436.218C227.181 436.513 227.228 436.786 227.324 437.037C227.419 437.288 227.553 437.505 227.727 437.687C227.909 437.869 228.125 438.012 228.377 438.116C228.637 438.211 228.923 438.259 229.235 438.259C229.685 438.259 230.075 438.155 230.405 437.947C230.734 437.739 230.985 437.453 231.159 437.089L231.926 437.609C231.726 438.06 231.393 438.432 230.925 438.727C230.465 439.013 229.902 439.156 229.235 439.156ZM229.17 432.994C228.884 432.994 228.619 433.046 228.377 433.15C228.134 433.254 227.922 433.397 227.74 433.579C227.566 433.761 227.428 433.978 227.324 434.229C227.228 434.472 227.181 434.74 227.181 435.035V435.126H231.029V434.983C231.029 434.688 230.981 434.42 230.886 434.177C230.799 433.934 230.673 433.726 230.509 433.553C230.353 433.371 230.158 433.232 229.924 433.137C229.698 433.042 229.447 432.994 229.17 432.994ZM236.991 439.156C236.289 439.156 235.682 439.039 235.171 438.805C234.668 438.562 234.239 438.242 233.884 437.843L234.586 437.232C234.906 437.57 235.257 437.83 235.639 438.012C236.02 438.194 236.479 438.285 237.017 438.285C237.537 438.285 237.961 438.194 238.291 438.012C238.629 437.821 238.798 437.527 238.798 437.128C238.798 436.955 238.763 436.812 238.694 436.699C238.633 436.578 238.546 436.482 238.434 436.413C238.321 436.344 238.195 436.292 238.057 436.257C237.918 436.214 237.771 436.179 237.615 436.153L236.562 435.997C236.328 435.962 236.072 435.915 235.795 435.854C235.526 435.793 235.279 435.698 235.054 435.568C234.828 435.429 234.638 435.247 234.482 435.022C234.334 434.797 234.261 434.502 234.261 434.138C234.261 433.8 234.326 433.51 234.456 433.267C234.594 433.016 234.785 432.808 235.028 432.643C235.27 432.47 235.556 432.344 235.886 432.266C236.215 432.179 236.575 432.136 236.965 432.136C237.571 432.136 238.096 432.231 238.538 432.422C238.988 432.613 239.374 432.877 239.695 433.215L239.019 433.852C238.941 433.757 238.841 433.661 238.72 433.566C238.607 433.462 238.464 433.371 238.291 433.293C238.126 433.206 237.931 433.137 237.706 433.085C237.48 433.033 237.22 433.007 236.926 433.007C236.397 433.007 235.99 433.098 235.704 433.28C235.426 433.462 235.288 433.726 235.288 434.073C235.288 434.246 235.318 434.394 235.379 434.515C235.448 434.628 235.539 434.719 235.652 434.788C235.764 434.857 235.89 434.914 236.029 434.957C236.176 434.992 236.323 435.022 236.471 435.048L237.524 435.204C237.766 435.239 238.022 435.286 238.291 435.347C238.559 435.408 238.806 435.507 239.032 435.646C239.257 435.776 239.443 435.954 239.591 436.179C239.747 436.404 239.825 436.699 239.825 437.063C239.825 437.73 239.565 438.246 239.045 438.61C238.533 438.974 237.849 439.156 236.991 439.156ZM252.828 439C252.316 439 251.939 438.857 251.697 438.571C251.463 438.285 251.346 437.917 251.346 437.466V433.176H249.11V432.292H250.774C250.999 432.292 251.155 432.249 251.242 432.162C251.337 432.067 251.385 431.906 251.385 431.681V429.926H252.386V432.292H255.441V433.176H252.386V438.116H255.441V439H252.828ZM260.297 439.156C259.829 439.156 259.405 439.074 259.023 438.909C258.651 438.744 258.33 438.51 258.061 438.207C257.801 437.895 257.602 437.527 257.463 437.102C257.325 436.669 257.255 436.183 257.255 435.646C257.255 435.117 257.325 434.636 257.463 434.203C257.602 433.77 257.801 433.401 258.061 433.098C258.33 432.786 258.651 432.548 259.023 432.383C259.405 432.218 259.829 432.136 260.297 432.136C260.765 432.136 261.186 432.218 261.558 432.383C261.94 432.548 262.26 432.786 262.52 433.098C262.789 433.401 262.993 433.77 263.131 434.203C263.27 434.636 263.339 435.117 263.339 435.646C263.339 436.183 263.27 436.669 263.131 437.102C262.993 437.527 262.789 437.895 262.52 438.207C262.26 438.51 261.94 438.744 261.558 438.909C261.186 439.074 260.765 439.156 260.297 439.156ZM260.297 438.259C260.878 438.259 261.346 438.086 261.701 437.739C262.057 437.392 262.234 436.855 262.234 436.127V435.165C262.234 434.437 262.057 433.9 261.701 433.553C261.346 433.206 260.878 433.033 260.297 433.033C259.717 433.033 259.249 433.206 258.893 433.553C258.538 433.9 258.36 434.437 258.36 435.165V436.127C258.36 436.855 258.538 437.392 258.893 437.739C259.249 438.086 259.717 438.259 260.297 438.259ZM272.988 438.116H274.951V433.176H272.988V432.292H275.991V433.982H276.056C276.195 433.453 276.455 433.042 276.836 432.747C277.226 432.444 277.72 432.292 278.318 432.292H279.254V433.332H277.993C277.395 433.332 276.91 433.505 276.537 433.852C276.173 434.199 275.991 434.654 275.991 435.217V438.116H278.591V439H272.988V438.116ZM283.682 439.156C283.214 439.156 282.79 439.074 282.408 438.909C282.036 438.744 281.715 438.51 281.446 438.207C281.186 437.895 280.987 437.527 280.848 437.102C280.71 436.669 280.64 436.183 280.64 435.646C280.64 435.117 280.71 434.636 280.848 434.203C280.987 433.77 281.186 433.401 281.446 433.098C281.715 432.786 282.036 432.548 282.408 432.383C282.79 432.218 283.214 432.136 283.682 432.136C284.15 432.136 284.571 432.218 284.943 432.383C285.325 432.548 285.645 432.786 285.905 433.098C286.174 433.401 286.378 433.77 286.516 434.203C286.655 434.636 286.724 435.117 286.724 435.646C286.724 436.183 286.655 436.669 286.516 437.102C286.378 437.527 286.174 437.895 285.905 438.207C285.645 438.51 285.325 438.744 284.943 438.909C284.571 439.074 284.15 439.156 283.682 439.156ZM283.682 438.259C284.263 438.259 284.731 438.086 285.086 437.739C285.442 437.392 285.619 436.855 285.619 436.127V435.165C285.619 434.437 285.442 433.9 285.086 433.553C284.731 433.206 284.263 433.033 283.682 433.033C283.102 433.033 282.634 433.206 282.278 433.553C281.923 433.9 281.745 434.437 281.745 435.165V436.127C281.745 436.855 281.923 437.392 282.278 437.739C282.634 438.086 283.102 438.259 283.682 438.259ZM288.617 438.116H290.957V430.264H288.617V429.38H291.997V438.116H294.337V439H288.617V438.116ZM296.412 438.116H298.752V430.264H296.412V429.38H299.792V438.116H302.132V439H296.412V438.116ZM308.653 437.908H308.601C308.532 438.073 308.445 438.233 308.341 438.389C308.237 438.536 308.107 438.666 307.951 438.779C307.804 438.892 307.626 438.983 307.418 439.052C307.21 439.121 306.967 439.156 306.69 439.156C305.988 439.156 305.425 438.935 305 438.493C304.575 438.042 304.363 437.41 304.363 436.595V432.292H305.403V436.413C305.403 437.028 305.537 437.488 305.806 437.791C306.075 438.086 306.469 438.233 306.989 438.233C307.197 438.233 307.401 438.207 307.6 438.155C307.799 438.103 307.977 438.025 308.133 437.921C308.289 437.817 308.415 437.687 308.51 437.531C308.605 437.366 308.653 437.171 308.653 436.946V432.292H309.693V439H308.653V437.908ZM312.197 432.292H313.237V433.384H313.289C313.722 432.552 314.411 432.136 315.356 432.136C316.179 432.136 316.821 432.444 317.28 433.059C317.748 433.674 317.982 434.537 317.982 435.646C317.982 436.755 317.748 437.618 317.28 438.233C316.821 438.848 316.179 439.156 315.356 439.156C314.411 439.156 313.722 438.74 313.289 437.908H313.237V441.6H312.197V432.292ZM314.953 438.233C315.56 438.233 316.028 438.051 316.357 437.687C316.695 437.314 316.864 436.825 316.864 436.218V435.074C316.864 434.467 316.695 433.982 316.357 433.618C316.028 433.245 315.56 433.059 314.953 433.059C314.719 433.059 314.498 433.089 314.29 433.15C314.082 433.211 313.9 433.302 313.744 433.423C313.588 433.536 313.462 433.679 313.367 433.852C313.28 434.017 313.237 434.212 313.237 434.437V436.855C313.237 437.08 313.28 437.28 313.367 437.453C313.462 437.618 313.588 437.761 313.744 437.882C313.9 437.995 314.082 438.081 314.29 438.142C314.498 438.203 314.719 438.233 314.953 438.233ZM322.735 439.156C322.033 439.156 321.426 439.039 320.915 438.805C320.412 438.562 319.983 438.242 319.628 437.843L320.33 437.232C320.651 437.57 321.002 437.83 321.383 438.012C321.764 438.194 322.224 438.285 322.761 438.285C323.281 438.285 323.706 438.194 324.035 438.012C324.373 437.821 324.542 437.527 324.542 437.128C324.542 436.955 324.507 436.812 324.438 436.699C324.377 436.578 324.291 436.482 324.178 436.413C324.065 436.344 323.94 436.292 323.801 436.257C323.662 436.214 323.515 436.179 323.359 436.153L322.306 435.997C322.072 435.962 321.816 435.915 321.539 435.854C321.27 435.793 321.023 435.698 320.798 435.568C320.573 435.429 320.382 435.247 320.226 435.022C320.079 434.797 320.005 434.502 320.005 434.138C320.005 433.8 320.07 433.51 320.2 433.267C320.339 433.016 320.529 432.808 320.772 432.643C321.015 432.47 321.301 432.344 321.63 432.266C321.959 432.179 322.319 432.136 322.709 432.136C323.316 432.136 323.84 432.231 324.282 432.422C324.733 432.613 325.118 432.877 325.439 433.215L324.763 433.852C324.685 433.757 324.585 433.661 324.464 433.566C324.351 433.462 324.208 433.371 324.035 433.293C323.87 433.206 323.675 433.137 323.45 433.085C323.225 433.033 322.965 433.007 322.67 433.007C322.141 433.007 321.734 433.098 321.448 433.28C321.171 433.462 321.032 433.726 321.032 434.073C321.032 434.246 321.062 434.394 321.123 434.515C321.192 434.628 321.283 434.719 321.396 434.788C321.509 434.857 321.634 434.914 321.773 434.957C321.92 434.992 322.068 435.022 322.215 435.048L323.268 435.204C323.511 435.239 323.766 435.286 324.035 435.347C324.304 435.408 324.551 435.507 324.776 435.646C325.001 435.776 325.188 435.954 325.335 436.179C325.491 436.404 325.569 436.699 325.569 437.063C325.569 437.73 325.309 438.246 324.789 438.61C324.278 438.974 323.593 439.156 322.735 439.156Z" fill="#1A0C6D"/>
<rect width="275.813" height="275.813" transform="matrix(0.919755 -0.392494 0.919755 0.392494 0 276)" fill="#0EAA00"/>
<path d="M246.751 282L245.956 279.21H242.626L241.831 282H240.121L243.181 271.53H245.476L248.536 282H246.751ZM244.351 273.225H244.231L242.941 277.815H245.641L244.351 273.225ZM252.146 282L249.191 271.53H251.006L252.386 276.81L253.301 280.365H253.391L254.306 276.81L255.701 271.53H257.441L254.486 282H252.146ZM262.22 282.18C261.31 282.18 260.545 282.02 259.925 281.7C259.305 281.38 258.795 280.955 258.395 280.425L259.475 279.39C259.875 279.87 260.3 280.225 260.75 280.455C261.2 280.675 261.71 280.785 262.28 280.785C262.94 280.785 263.445 280.635 263.795 280.335C264.155 280.035 264.335 279.605 264.335 279.045C264.335 278.595 264.205 278.25 263.945 278.01C263.685 277.76 263.24 277.58 262.61 277.47L261.47 277.29C260.97 277.21 260.55 277.08 260.21 276.9C259.87 276.71 259.595 276.49 259.385 276.24C259.175 275.98 259.02 275.695 258.92 275.385C258.83 275.065 258.785 274.73 258.785 274.38C258.785 273.39 259.105 272.64 259.745 272.13C260.385 271.61 261.265 271.35 262.385 271.35C263.215 271.35 263.92 271.485 264.5 271.755C265.09 272.015 265.565 272.385 265.925 272.865L264.875 273.915C264.585 273.565 264.24 273.285 263.84 273.075C263.45 272.855 262.965 272.745 262.385 272.745C261.765 272.745 261.29 272.88 260.96 273.15C260.64 273.41 260.48 273.795 260.48 274.305C260.48 274.735 260.605 275.075 260.855 275.325C261.115 275.565 261.57 275.74 262.22 275.85L263.33 276.045C264.27 276.215 264.955 276.56 265.385 277.08C265.815 277.59 266.03 278.215 266.03 278.955C266.03 279.435 265.945 279.875 265.775 280.275C265.615 280.675 265.37 281.015 265.04 281.295C264.72 281.575 264.32 281.795 263.84 281.955C263.37 282.105 262.83 282.18 262.22 282.18Z" fill="#1A0C6D"/>
<path d="M398.159 172L395.468 162.926H396.625L397.912 167.463L398.887 170.895H398.952L399.927 167.463L401.214 162.926H402.332L399.641 172H398.159ZM409.23 172C408.823 172 408.532 171.896 408.359 171.688C408.186 171.48 408.077 171.22 408.034 170.908H407.969C407.822 171.298 407.583 171.606 407.254 171.831C406.933 172.048 406.5 172.156 405.954 172.156C405.252 172.156 404.693 171.974 404.277 171.61C403.861 171.246 403.653 170.748 403.653 170.115C403.653 169.491 403.878 169.01 404.329 168.672C404.788 168.334 405.525 168.165 406.539 168.165H407.969V167.502C407.969 167.008 407.83 166.64 407.553 166.397C407.276 166.146 406.881 166.02 406.37 166.02C405.919 166.02 405.551 166.111 405.265 166.293C404.979 166.466 404.749 166.705 404.576 167.008L403.874 166.488C403.961 166.315 404.078 166.146 404.225 165.981C404.372 165.816 404.554 165.673 404.771 165.552C404.988 165.422 405.235 165.322 405.512 165.253C405.789 165.175 406.097 165.136 406.435 165.136C407.224 165.136 407.848 165.335 408.307 165.734C408.775 166.133 409.009 166.687 409.009 167.398V171.09H409.945V172H409.23ZM406.136 171.285C406.405 171.285 406.647 171.255 406.864 171.194C407.089 171.125 407.284 171.038 407.449 170.934C407.614 170.821 407.739 170.691 407.826 170.544C407.921 170.388 407.969 170.223 407.969 170.05V168.945H406.539C405.915 168.945 405.46 169.032 405.174 169.205C404.888 169.378 404.745 169.63 404.745 169.959V170.232C404.745 170.579 404.866 170.843 405.109 171.025C405.36 171.198 405.703 171.285 406.136 171.285ZM411.63 171.116H413.97V163.264H411.63V162.38H415.01V171.116H417.35V172H411.63V171.116ZM422.701 163.81C422.397 163.81 422.185 163.749 422.064 163.628C421.942 163.498 421.882 163.338 421.882 163.147V162.939C421.882 162.748 421.942 162.592 422.064 162.471C422.185 162.341 422.397 162.276 422.701 162.276C423.004 162.276 423.216 162.341 423.338 162.471C423.459 162.592 423.52 162.748 423.52 162.939V163.147C423.52 163.338 423.459 163.498 423.338 163.628C423.216 163.749 423.004 163.81 422.701 163.81ZM419.763 171.116H422.181V166.176H419.763V165.292H423.221V171.116H425.483V172H419.763V171.116ZM431.705 170.908H431.653C431.219 171.74 430.53 172.156 429.586 172.156C428.762 172.156 428.117 171.848 427.649 171.233C427.189 170.618 426.96 169.755 426.96 168.646C426.96 167.537 427.189 166.674 427.649 166.059C428.117 165.444 428.762 165.136 429.586 165.136C430.53 165.136 431.219 165.552 431.653 166.384H431.705V162.38H432.745V172H431.705V170.908ZM429.989 171.233C430.223 171.233 430.444 171.203 430.652 171.142C430.86 171.081 431.042 170.995 431.198 170.882C431.354 170.761 431.475 170.618 431.562 170.453C431.657 170.28 431.705 170.08 431.705 169.855V167.437C431.705 167.212 431.657 167.017 431.562 166.852C431.475 166.679 431.354 166.536 431.198 166.423C431.042 166.302 430.86 166.211 430.652 166.15C430.444 166.089 430.223 166.059 429.989 166.059C429.382 166.059 428.91 166.245 428.572 166.618C428.242 166.982 428.078 167.467 428.078 168.074V169.218C428.078 169.825 428.242 170.314 428.572 170.687C428.91 171.051 429.382 171.233 429.989 171.233ZM440.41 172C440.002 172 439.712 171.896 439.539 171.688C439.365 171.48 439.257 171.22 439.214 170.908H439.149C439.001 171.298 438.763 171.606 438.434 171.831C438.113 172.048 437.68 172.156 437.134 172.156C436.432 172.156 435.873 171.974 435.457 171.61C435.041 171.246 434.833 170.748 434.833 170.115C434.833 169.491 435.058 169.01 435.509 168.672C435.968 168.334 436.705 168.165 437.719 168.165H439.149V167.502C439.149 167.008 439.01 166.64 438.733 166.397C438.455 166.146 438.061 166.02 437.55 166.02C437.099 166.02 436.731 166.111 436.445 166.293C436.159 166.466 435.929 166.705 435.756 167.008L435.054 166.488C435.14 166.315 435.257 166.146 435.405 165.981C435.552 165.816 435.734 165.673 435.951 165.552C436.167 165.422 436.414 165.322 436.692 165.253C436.969 165.175 437.277 165.136 437.615 165.136C438.403 165.136 439.027 165.335 439.487 165.734C439.955 166.133 440.189 166.687 440.189 167.398V171.09H441.125V172H440.41ZM437.316 171.285C437.584 171.285 437.827 171.255 438.044 171.194C438.269 171.125 438.464 171.038 438.629 170.934C438.793 170.821 438.919 170.691 439.006 170.544C439.101 170.388 439.149 170.223 439.149 170.05V168.945H437.719C437.095 168.945 436.64 169.032 436.354 169.205C436.068 169.378 435.925 169.63 435.925 169.959V170.232C435.925 170.579 436.046 170.843 436.289 171.025C436.54 171.198 436.882 171.285 437.316 171.285ZM445.995 172C445.483 172 445.106 171.857 444.864 171.571C444.63 171.285 444.513 170.917 444.513 170.466V166.176H442.277V165.292H443.941C444.166 165.292 444.322 165.249 444.409 165.162C444.504 165.067 444.552 164.906 444.552 164.681V162.926H445.553V165.292H448.608V166.176H445.553V171.116H448.608V172H445.995ZM453.581 172.156C453.096 172.156 452.658 172.074 452.268 171.909C451.887 171.744 451.558 171.51 451.28 171.207C451.012 170.895 450.804 170.527 450.656 170.102C450.509 169.669 450.435 169.188 450.435 168.659C450.435 168.122 450.509 167.636 450.656 167.203C450.812 166.77 451.025 166.401 451.293 166.098C451.562 165.786 451.883 165.548 452.255 165.383C452.637 165.218 453.057 165.136 453.516 165.136C453.967 165.136 454.374 165.218 454.738 165.383C455.111 165.548 455.427 165.777 455.687 166.072C455.947 166.358 456.147 166.7 456.285 167.099C456.424 167.498 456.493 167.935 456.493 168.412V168.906H451.527V169.218C451.527 169.513 451.575 169.786 451.67 170.037C451.766 170.288 451.9 170.505 452.073 170.687C452.255 170.869 452.472 171.012 452.723 171.116C452.983 171.211 453.269 171.259 453.581 171.259C454.032 171.259 454.422 171.155 454.751 170.947C455.081 170.739 455.332 170.453 455.505 170.089L456.272 170.609C456.073 171.06 455.739 171.432 455.271 171.727C454.812 172.013 454.249 172.156 453.581 172.156ZM453.516 165.994C453.23 165.994 452.966 166.046 452.723 166.15C452.481 166.254 452.268 166.397 452.086 166.579C451.913 166.761 451.774 166.978 451.67 167.229C451.575 167.472 451.527 167.74 451.527 168.035V168.126H455.375V167.983C455.375 167.688 455.328 167.42 455.232 167.177C455.146 166.934 455.02 166.726 454.855 166.553C454.699 166.371 454.504 166.232 454.27 166.137C454.045 166.042 453.794 165.994 453.516 165.994ZM461.337 172.156C460.635 172.156 460.029 172.039 459.517 171.805C459.015 171.562 458.586 171.242 458.23 170.843L458.932 170.232C459.253 170.57 459.604 170.83 459.985 171.012C460.367 171.194 460.826 171.285 461.363 171.285C461.883 171.285 462.308 171.194 462.637 171.012C462.975 170.821 463.144 170.527 463.144 170.128C463.144 169.955 463.11 169.812 463.04 169.699C462.98 169.578 462.893 169.482 462.78 169.413C462.668 169.344 462.542 169.292 462.403 169.257C462.265 169.214 462.117 169.179 461.961 169.153L460.908 168.997C460.674 168.962 460.419 168.915 460.141 168.854C459.873 168.793 459.626 168.698 459.4 168.568C459.175 168.429 458.984 168.247 458.828 168.022C458.681 167.797 458.607 167.502 458.607 167.138C458.607 166.8 458.672 166.51 458.802 166.267C458.941 166.016 459.132 165.808 459.374 165.643C459.617 165.47 459.903 165.344 460.232 165.266C460.562 165.179 460.921 165.136 461.311 165.136C461.918 165.136 462.442 165.231 462.884 165.422C463.335 165.613 463.721 165.877 464.041 166.215L463.365 166.852C463.287 166.757 463.188 166.661 463.066 166.566C462.954 166.462 462.811 166.371 462.637 166.293C462.473 166.206 462.278 166.137 462.052 166.085C461.827 166.033 461.567 166.007 461.272 166.007C460.744 166.007 460.336 166.098 460.05 166.28C459.773 166.462 459.634 166.726 459.634 167.073C459.634 167.246 459.665 167.394 459.725 167.515C459.795 167.628 459.886 167.719 459.998 167.788C460.111 167.857 460.237 167.914 460.375 167.957C460.523 167.992 460.67 168.022 460.817 168.048L461.87 168.204C462.113 168.239 462.369 168.286 462.637 168.347C462.906 168.408 463.153 168.507 463.378 168.646C463.604 168.776 463.79 168.954 463.937 169.179C464.093 169.404 464.171 169.699 464.171 170.063C464.171 170.73 463.911 171.246 463.391 171.61C462.88 171.974 462.195 172.156 461.337 172.156ZM401.253 187L400.486 184.413H397.301L396.534 187H395.403L398.185 177.926H399.628L402.41 187H401.253ZM398.952 179.083H398.835L397.561 183.464H400.226L398.952 179.083ZM405.954 187L403.263 177.926H404.42L405.707 182.463L406.682 185.895H406.747L407.722 182.463L409.009 177.926H410.127L407.436 187H405.954ZM414.464 187.156C413.649 187.156 412.982 187.009 412.462 186.714C411.942 186.411 411.513 186.025 411.175 185.557L411.968 184.907C412.323 185.349 412.696 185.678 413.086 185.895C413.485 186.112 413.957 186.22 414.503 186.22C415.162 186.22 415.664 186.068 416.011 185.765C416.358 185.462 416.531 185.037 416.531 184.491C416.531 184.049 416.405 183.707 416.154 183.464C415.903 183.213 415.465 183.035 414.841 182.931L413.827 182.762C413.385 182.684 413.012 182.567 412.709 182.411C412.414 182.255 412.176 182.069 411.994 181.852C411.812 181.627 411.682 181.384 411.604 181.124C411.526 180.855 411.487 180.578 411.487 180.292C411.487 179.46 411.76 178.832 412.306 178.407C412.852 177.982 413.589 177.77 414.516 177.77C415.244 177.77 415.855 177.891 416.349 178.134C416.852 178.377 417.255 178.719 417.558 179.161L416.791 179.824C416.54 179.495 416.236 179.226 415.881 179.018C415.526 178.81 415.066 178.706 414.503 178.706C413.888 178.706 413.415 178.836 413.086 179.096C412.757 179.356 412.592 179.746 412.592 180.266C412.592 180.673 412.713 181.007 412.956 181.267C413.207 181.518 413.654 181.7 414.295 181.813L415.27 181.982C415.712 182.06 416.085 182.177 416.388 182.333C416.691 182.489 416.934 182.675 417.116 182.892C417.307 183.109 417.441 183.351 417.519 183.62C417.597 183.889 417.636 184.17 417.636 184.465C417.636 185.306 417.359 185.964 416.804 186.441C416.258 186.918 415.478 187.156 414.464 187.156ZM430.405 187C429.893 187 429.516 186.857 429.274 186.571C429.04 186.285 428.923 185.917 428.923 185.466V181.176H426.687V180.292H428.351C428.576 180.292 428.732 180.249 428.819 180.162C428.914 180.067 428.962 179.906 428.962 179.681V177.926H429.963V180.292H433.018V181.176H429.963V186.116H433.018V187H430.405ZM440.41 187C440.002 187 439.712 186.896 439.539 186.688C439.365 186.48 439.257 186.22 439.214 185.908H439.149C439.001 186.298 438.763 186.606 438.434 186.831C438.113 187.048 437.68 187.156 437.134 187.156C436.432 187.156 435.873 186.974 435.457 186.61C435.041 186.246 434.833 185.748 434.833 185.115C434.833 184.491 435.058 184.01 435.509 183.672C435.968 183.334 436.705 183.165 437.719 183.165H439.149V182.502C439.149 182.008 439.01 181.64 438.733 181.397C438.455 181.146 438.061 181.02 437.55 181.02C437.099 181.02 436.731 181.111 436.445 181.293C436.159 181.466 435.929 181.705 435.756 182.008L435.054 181.488C435.14 181.315 435.257 181.146 435.405 180.981C435.552 180.816 435.734 180.673 435.951 180.552C436.167 180.422 436.414 180.322 436.692 180.253C436.969 180.175 437.277 180.136 437.615 180.136C438.403 180.136 439.027 180.335 439.487 180.734C439.955 181.133 440.189 181.687 440.189 182.398V186.09H441.125V187H440.41ZM437.316 186.285C437.584 186.285 437.827 186.255 438.044 186.194C438.269 186.125 438.464 186.038 438.629 185.934C438.793 185.821 438.919 185.691 439.006 185.544C439.101 185.388 439.149 185.223 439.149 185.05V183.945H437.719C437.095 183.945 436.64 184.032 436.354 184.205C436.068 184.378 435.925 184.63 435.925 184.959V185.232C435.925 185.579 436.046 185.843 436.289 186.025C436.54 186.198 436.882 186.285 437.316 186.285ZM445.748 187.156C445.046 187.156 444.439 187.039 443.928 186.805C443.425 186.562 442.996 186.242 442.641 185.843L443.343 185.232C443.663 185.57 444.014 185.83 444.396 186.012C444.777 186.194 445.236 186.285 445.774 186.285C446.294 186.285 446.718 186.194 447.048 186.012C447.386 185.821 447.555 185.527 447.555 185.128C447.555 184.955 447.52 184.812 447.451 184.699C447.39 184.578 447.303 184.482 447.191 184.413C447.078 184.344 446.952 184.292 446.814 184.257C446.675 184.214 446.528 184.179 446.372 184.153L445.319 183.997C445.085 183.962 444.829 183.915 444.552 183.854C444.283 183.793 444.036 183.698 443.811 183.568C443.585 183.429 443.395 183.247 443.239 183.022C443.091 182.797 443.018 182.502 443.018 182.138C443.018 181.8 443.083 181.51 443.213 181.267C443.351 181.016 443.542 180.808 443.785 180.643C444.027 180.47 444.313 180.344 444.643 180.266C444.972 180.179 445.332 180.136 445.722 180.136C446.328 180.136 446.853 180.231 447.295 180.422C447.745 180.613 448.131 180.877 448.452 181.215L447.776 181.852C447.698 181.757 447.598 181.661 447.477 181.566C447.364 181.462 447.221 181.371 447.048 181.293C446.883 181.206 446.688 181.137 446.463 181.085C446.237 181.033 445.977 181.007 445.683 181.007C445.154 181.007 444.747 181.098 444.461 181.28C444.183 181.462 444.045 181.726 444.045 182.073C444.045 182.246 444.075 182.394 444.136 182.515C444.205 182.628 444.296 182.719 444.409 182.788C444.521 182.857 444.647 182.914 444.786 182.957C444.933 182.992 445.08 183.022 445.228 183.048L446.281 183.204C446.523 183.239 446.779 183.286 447.048 183.347C447.316 183.408 447.563 183.507 447.789 183.646C448.014 183.776 448.2 183.954 448.348 184.179C448.504 184.404 448.582 184.699 448.582 185.063C448.582 185.73 448.322 186.246 447.802 186.61C447.29 186.974 446.606 187.156 445.748 187.156ZM450.929 177.38H451.969V183.451H452.021L453.191 182.346L455.427 180.292H456.701L453.919 182.918L457.026 187H455.739L453.126 183.516L451.969 184.569V187H450.929V177.38ZM461.337 187.156C460.635 187.156 460.029 187.039 459.517 186.805C459.015 186.562 458.586 186.242 458.23 185.843L458.932 185.232C459.253 185.57 459.604 185.83 459.985 186.012C460.367 186.194 460.826 186.285 461.363 186.285C461.883 186.285 462.308 186.194 462.637 186.012C462.975 185.821 463.144 185.527 463.144 185.128C463.144 184.955 463.11 184.812 463.04 184.699C462.98 184.578 462.893 184.482 462.78 184.413C462.668 184.344 462.542 184.292 462.403 184.257C462.265 184.214 462.117 184.179 461.961 184.153L460.908 183.997C460.674 183.962 460.419 183.915 460.141 183.854C459.873 183.793 459.626 183.698 459.4 183.568C459.175 183.429 458.984 183.247 458.828 183.022C458.681 182.797 458.607 182.502 458.607 182.138C458.607 181.8 458.672 181.51 458.802 181.267C458.941 181.016 459.132 180.808 459.374 180.643C459.617 180.47 459.903 180.344 460.232 180.266C460.562 180.179 460.921 180.136 461.311 180.136C461.918 180.136 462.442 180.231 462.884 180.422C463.335 180.613 463.721 180.877 464.041 181.215L463.365 181.852C463.287 181.757 463.188 181.661 463.066 181.566C462.954 181.462 462.811 181.371 462.637 181.293C462.473 181.206 462.278 181.137 462.052 181.085C461.827 181.033 461.567 181.007 461.272 181.007C460.744 181.007 460.336 181.098 460.05 181.28C459.773 181.462 459.634 181.726 459.634 182.073C459.634 182.246 459.665 182.394 459.725 182.515C459.795 182.628 459.886 182.719 459.998 182.788C460.111 182.857 460.237 182.914 460.375 182.957C460.523 182.992 460.67 183.022 460.817 183.048L461.87 183.204C462.113 183.239 462.369 183.286 462.637 183.347C462.906 183.408 463.153 183.507 463.378 183.646C463.604 183.776 463.79 183.954 463.937 184.179C464.093 184.404 464.171 184.699 464.171 185.063C464.171 185.73 463.911 186.246 463.391 186.61C462.88 186.974 462.195 187.156 461.337 187.156Z" fill="#1A0C6D"/>
<path d="M256.551 83C256.551 81.0387 254.961 79.4487 253 79.4487C251.039 79.4487 249.449 81.0387 249.449 83C249.449 84.9613 251.039 86.5513 253 86.5513C254.961 86.5513 256.551 84.9613 256.551 83ZM253 231L256.844 224.341L249.156 224.341L253 231ZM252.334 83L252.334 84.4231L253.666 84.4231L253.666 83L252.334 83ZM252.334 87.2692L252.334 90.1154L253.666 90.1154L253.666 87.2692L252.334 87.2692ZM252.334 92.9615L252.334 95.8077L253.666 95.8077L253.666 92.9615L252.334 92.9615ZM252.334 98.6538L252.334 101.5L253.666 101.5L253.666 98.6538L252.334 98.6538ZM252.334 104.346L252.334 107.192L253.666 107.192L253.666 104.346L252.334 104.346ZM252.334 110.038L252.334 112.885L253.666 112.885L253.666 110.038L252.334 110.038ZM252.334 115.731L252.334 118.577L253.666 118.577L253.666 115.731L252.334 115.731ZM252.334 121.423L252.334 124.269L253.666 124.269L253.666 121.423L252.334 121.423ZM252.334 127.115L252.334 129.962L253.666 129.962L253.666 127.115L252.334 127.115ZM252.334 132.808L252.334 135.654L253.666 135.654L253.666 132.808L252.334 132.808ZM252.334 138.5L252.334 141.346L253.666 141.346L253.666 138.5L252.334 138.5ZM252.334 144.192L252.334 147.038L253.666 147.038L253.666 144.192L252.334 144.192ZM252.334 149.885L252.334 152.731L253.666 152.731L253.666 149.885L252.334 149.885ZM252.334 155.577L252.334 158.423L253.666 158.423L253.666 155.577L252.334 155.577ZM252.334 161.269L252.334 164.115L253.666 164.115L253.666 161.269L252.334 161.269ZM252.334 166.962L252.334 169.808L253.666 169.808L253.666 166.962L252.334 166.962ZM252.334 172.654L252.334 175.5L253.666 175.5L253.666 172.654L252.334 172.654ZM252.334 178.346L252.334 181.192L253.666 181.192L253.666 178.346L252.334 178.346ZM252.334 184.038L252.334 186.885L253.666 186.885L253.666 184.038L252.334 184.038ZM252.334 189.731L252.334 192.577L253.666 192.577L253.666 189.731L252.334 189.731ZM252.334 195.423L252.334 198.269L253.666 198.269L253.666 195.423L252.334 195.423ZM252.334 201.115L252.334 203.962L253.666 203.962L253.666 201.115L252.334 201.115ZM252.334 206.808L252.334 209.654L253.666 209.654L253.666 206.808L252.334 206.808ZM252.334 212.5L252.334 215.346L253.666 215.346L253.666 212.5L252.334 212.5ZM252.334 218.192L252.334 221.038L253.666 221.038L253.666 218.192L252.334 218.192ZM252.334 223.885L252.334 226.731L253.666 226.731L253.666 223.885L252.334 223.885Z" fill="#1A0C6D"/>
<path d="M136.551 137C136.551 135.039 134.961 133.449 133 133.449C131.039 133.449 129.449 135.039 129.449 137C129.449 138.961 131.039 140.551 133 140.551C134.961 140.551 136.551 138.961 136.551 137ZM133 280L136.844 273.341L129.156 273.341L133 280ZM133.666 275.71L133.666 272.85L132.334 272.85L132.334 275.71L133.666 275.71ZM133.666 269.99L133.666 267.13L132.334 267.13L132.334 269.99L133.666 269.99ZM133.666 264.27L133.666 261.41L132.334 261.41L132.334 264.27L133.666 264.27ZM133.666 258.55L133.666 255.69L132.334 255.69L132.334 258.55L133.666 258.55ZM133.666 252.83L133.666 249.97L132.334 249.97L132.334 252.83L133.666 252.83ZM133.666 247.11L133.666 244.25L132.334 244.25L132.334 247.11L133.666 247.11ZM133.666 241.39L133.666 238.53L132.334 238.53L132.334 241.39L133.666 241.39ZM133.666 235.67L133.666 232.81L132.334 232.81L132.334 235.67L133.666 235.67ZM133.666 229.95L133.666 227.09L132.334 227.09L132.334 229.95L133.666 229.95ZM133.666 224.23L133.666 221.37L132.334 221.37L132.334 224.23L133.666 224.23ZM133.666 218.51L133.666 215.65L132.334 215.65L132.334 218.51L133.666 218.51ZM133.666 212.79L133.666 209.93L132.334 209.93L132.334 212.79L133.666 212.79ZM133.666 207.07L133.666 204.21L132.334 204.21L132.334 207.07L133.666 207.07ZM133.666 201.35L133.666 198.49L132.334 198.49L132.334 201.35L133.666 201.35ZM133.666 195.63L133.666 192.77L132.334 192.77L132.334 195.63L133.666 195.63ZM133.666 189.91L133.666 187.05L132.334 187.05L132.334 189.91L133.666 189.91ZM133.666 184.19L133.666 181.33L132.334 181.33L132.334 184.19L133.666 184.19ZM133.666 178.47L133.666 175.61L132.334 175.61L132.334 178.47L133.666 178.47ZM133.666 172.75L133.666 169.89L132.334 169.89L132.334 172.75L133.666 172.75ZM133.666 167.03L133.666 164.17L132.334 164.17L132.334 167.03L133.666 167.03ZM133.666 161.31L133.666 158.45L132.334 158.45L132.334 161.31L133.666 161.31ZM133.666 155.59L133.666 152.73L132.334 152.73L132.334 155.59L133.666 155.59ZM133.666 149.87L133.666 147.01L132.334 147.01L132.334 149.87L133.666 149.87ZM133.666 144.15L133.666 141.29L132.334 141.29L132.334 144.15L133.666 144.15ZM133.666 138.43L133.666 137L132.334 137L132.334 138.43L133.666 138.43Z" fill="#1A0C6D"/>
<path d="M376.551 137C376.551 135.039 374.961 133.449 373 133.449C371.039 133.449 369.449 135.039 369.449 137C369.449 138.961 371.039 140.551 373 140.551C374.961 140.551 376.551 138.961 376.551 137ZM373 280L376.844 273.341L369.156 273.341L373 280ZM373.666 275.71L373.666 272.85L372.334 272.85L372.334 275.71L373.666 275.71ZM373.666 269.99L373.666 267.13L372.334 267.13L372.334 269.99L373.666 269.99ZM373.666 264.27L373.666 261.41L372.334 261.41L372.334 264.27L373.666 264.27ZM373.666 258.55L373.666 255.69L372.334 255.69L372.334 258.55L373.666 258.55ZM373.666 252.83L373.666 249.97L372.334 249.97L372.334 252.83L373.666 252.83ZM373.666 247.11L373.666 244.25L372.334 244.25L372.334 247.11L373.666 247.11ZM373.666 241.39L373.666 238.53L372.334 238.53L372.334 241.39L373.666 241.39ZM373.666 235.67L373.666 232.81L372.334 232.81L372.334 235.67L373.666 235.67ZM373.666 229.95L373.666 227.09L372.334 227.09L372.334 229.95L373.666 229.95ZM373.666 224.23L373.666 221.37L372.334 221.37L372.334 224.23L373.666 224.23ZM373.666 218.51L373.666 215.65L372.334 215.65L372.334 218.51L373.666 218.51ZM373.666 212.79L373.666 209.93L372.334 209.93L372.334 212.79L373.666 212.79ZM373.666 207.07L373.666 204.21L372.334 204.21L372.334 207.07L373.666 207.07ZM373.666 201.35L373.666 198.49L372.334 198.49L372.334 201.35L373.666 201.35ZM373.666 195.63L373.666 192.77L372.334 192.77L372.334 195.63L373.666 195.63ZM373.666 189.91L373.666 187.05L372.334 187.05L372.334 189.91L373.666 189.91ZM373.666 184.19L373.666 181.33L372.334 181.33L372.334 184.19L373.666 184.19ZM373.666 178.47L373.666 175.61L372.334 175.61L372.334 178.47L373.666 178.47ZM373.666 172.75L373.666 169.89L372.334 169.89L372.334 172.75L373.666 172.75ZM373.666 167.03L373.666 164.17L372.334 164.17L372.334 167.03L373.666 167.03ZM373.666 161.31L373.666 158.45L372.334 158.45L372.334 161.31L373.666 161.31ZM373.666 155.59L373.666 152.73L372.334 152.73L372.334 155.59L373.666 155.59ZM373.666 149.87L373.666 147.01L372.334 147.01L372.334 149.87L373.666 149.87ZM373.666 144.15L373.666 141.29L372.334 141.29L372.334 144.15L373.666 144.15ZM373.666 138.43L373.666 137L372.334 137L372.334 138.43L373.666 138.43Z" fill="#1A0C6D"/>
<path d="M133 444L136.844 437.341L129.156 437.341L133 444ZM129.449 362C129.449 363.961 131.039 365.551 133 365.551C134.961 365.551 136.551 363.961 136.551 362C136.551 360.039 134.961 358.449 133 358.449C131.039 358.449 129.449 360.039 129.449 362ZM132.334 362L132.334 363.464L133.666 363.464L133.666 362L132.334 362ZM132.334 366.393L132.334 369.321L133.666 369.321L133.666 366.393L132.334 366.393ZM132.334 372.25L132.334 375.179L133.666 375.179L133.666 372.25L132.334 372.25ZM132.334 378.107L132.334 381.036L133.666 381.036L133.666 378.107L132.334 378.107ZM132.334 383.964L132.334 386.893L133.666 386.893L133.666 383.964L132.334 383.964ZM132.334 389.821L132.334 392.75L133.666 392.75L133.666 389.821L132.334 389.821ZM132.334 395.679L132.334 398.607L133.666 398.607L133.666 395.679L132.334 395.679ZM132.334 401.536L132.334 404.464L133.666 404.464L133.666 401.536L132.334 401.536ZM132.334 407.393L132.334 410.321L133.666 410.321L133.666 407.393L132.334 407.393ZM132.334 413.25L132.334 416.179L133.666 416.179L133.666 413.25L132.334 413.25ZM132.334 419.107L132.334 422.036L133.666 422.036L133.666 419.107L132.334 419.107ZM132.334 424.964L132.334 427.893L133.666 427.893L133.666 424.964L132.334 424.964ZM132.334 430.821L132.334 433.75L133.666 433.75L133.666 430.821L132.334 430.821ZM132.334 436.679L132.334 439.607L133.666 439.607L133.666 436.679L132.334 436.679Z" fill="#1A0C6D"/>
<path d="M373 444L376.844 437.341L369.156 437.341L373 444ZM369.449 362C369.449 363.961 371.039 365.551 373 365.551C374.961 365.551 376.551 363.961 376.551 362C376.551 360.039 374.961 358.449 373 358.449C371.039 358.449 369.449 360.039 369.449 362ZM372.334 362L372.334 363.464L373.666 363.464L373.666 362L372.334 362ZM372.334 366.393L372.334 369.321L373.666 369.321L373.666 366.393L372.334 366.393ZM372.334 372.25L372.334 375.179L373.666 375.179L373.666 372.25L372.334 372.25ZM372.334 378.107L372.334 381.036L373.666 381.036L373.666 378.107L372.334 378.107ZM372.334 383.964L372.334 386.893L373.666 386.893L373.666 383.964L372.334 383.964ZM372.334 389.821L372.334 392.75L373.666 392.75L373.666 389.821L372.334 389.821ZM372.334 395.679L372.334 398.607L373.666 398.607L373.666 395.679L372.334 395.679ZM372.334 401.536L372.334 404.464L373.666 404.464L373.666 401.536L372.334 401.536ZM372.334 407.393L372.334 410.321L373.666 410.321L373.666 407.393L372.334 407.393ZM372.334 413.25L372.334 416.179L373.666 416.179L373.666 413.25L372.334 413.25ZM372.334 419.107L372.334 422.036L373.666 422.036L373.666 419.107L372.334 419.107ZM372.334 424.964L372.334 427.893L373.666 427.893L373.666 424.964L372.334 424.964ZM372.334 430.821L372.334 433.75L373.666 433.75L373.666 430.821L372.334 430.821ZM372.334 436.679L372.334 439.607L373.666 439.607L373.666 436.679L372.334 436.679Z" fill="#1A0C6D"/>
<rect width="92.0482" height="92.0482" transform="matrix(-0.919755 0.392494 -0.919755 -0.392493 217.324 87.9999)" fill="#FFB800"/>
<path d="M101.523 94.1799C100.863 94.1799 100.288 94.0599 99.7984 93.8199C99.3184 93.5699 98.9184 93.2149 98.5984 92.7549C98.2884 92.2949 98.0584 91.7299 97.9084 91.0599C97.7584 90.3899 97.6834 89.6249 97.6834 88.7649C97.6834 87.9149 97.7584 87.1549 97.9084 86.4849C98.0584 85.8049 98.2884 85.2349 98.5984 84.7749C98.9184 84.3149 99.3184 83.9649 99.7984 83.7249C100.288 83.4749 100.863 83.3499 101.523 83.3499C102.183 83.3499 102.753 83.4749 103.233 83.7249C103.723 83.9649 104.123 84.3149 104.433 84.7749C104.753 85.2349 104.988 85.8049 105.138 86.4849C105.288 87.1549 105.363 87.9149 105.363 88.7649C105.363 89.6249 105.288 90.3899 105.138 91.0599C104.988 91.7299 104.753 92.2949 104.433 92.7549C104.123 93.2149 103.723 93.5699 103.233 93.8199C102.753 94.0599 102.183 94.1799 101.523 94.1799ZM101.523 92.7849C102.273 92.7849 102.803 92.5049 103.113 91.9449C103.423 91.3749 103.578 90.6049 103.578 89.6349L103.578 87.8799C103.578 86.9199 103.423 86.1599 103.113 85.5999C102.803 85.0299 102.273 84.7449 101.523 84.7449C100.773 84.7449 100.243 85.0299 99.9334 85.5999C99.6234 86.1599 99.4684 86.9199 99.4684 87.8799L99.4684 89.6499C99.4684 90.6099 99.6234 91.3749 99.9334 91.9449C100.243 92.5049 100.773 92.7849 101.523 92.7849ZM107.203 86.2599L108.838 86.2599L108.838 87.5799L108.928 87.5799C109.158 87.1099 109.463 86.7449 109.843 86.4849C110.223 86.2149 110.698 86.0799 111.268 86.0799C112.178 86.0799 112.903 86.4199 113.443 87.0999C113.983 87.7799 114.253 88.7899 114.253 90.1299C114.253 91.4699 113.983 92.4799 113.443 93.1599C112.903 93.8399 112.178 94.1799 111.268 94.1799C110.698 94.1799 110.223 94.0499 109.843 93.7899C109.463 93.5199 109.158 93.1499 108.928 92.6799L108.838 92.6799L108.838 96.9999L107.203 96.9999L107.203 86.2599ZM110.593 92.8449C111.213 92.8449 111.688 92.6549 112.018 92.2749C112.358 91.8949 112.528 91.3899 112.528 90.7599L112.528 89.4999C112.528 88.8699 112.358 88.3649 112.018 87.9849C111.688 87.6049 111.213 87.4149 110.593 87.4149C110.353 87.4149 110.128 87.4449 109.918 87.5049C109.708 87.5649 109.523 87.6549 109.363 87.7749C109.203 87.8949 109.073 88.0449 108.973 88.2249C108.883 88.3949 108.838 88.5999 108.838 88.8399L108.838 91.4199C108.838 91.6599 108.883 91.8699 108.973 92.0499C109.073 92.2199 109.203 92.3649 109.363 92.4849C109.523 92.6049 109.708 92.6949 109.918 92.7549C110.128 92.8149 110.353 92.8449 110.593 92.8449ZM119.677 94.1799C119.087 94.1799 118.557 94.0849 118.087 93.8949C117.617 93.7049 117.222 93.4349 116.902 93.0849C116.582 92.7349 116.337 92.3149 116.167 91.8249C115.997 91.3249 115.912 90.7649 115.912 90.1449C115.912 89.5249 115.997 88.9649 116.167 88.4649C116.347 87.9649 116.592 87.5399 116.902 87.1899C117.222 86.8299 117.607 86.5549 118.057 86.3649C118.507 86.1749 119.007 86.0799 119.557 86.0799C120.097 86.0799 120.587 86.1749 121.027 86.3649C121.467 86.5449 121.842 86.8049 122.152 87.1449C122.462 87.4849 122.697 87.8899 122.857 88.3599C123.027 88.8299 123.112 89.3499 123.112 89.9199L123.112 90.5349L117.562 90.5349L117.562 90.7899C117.562 91.3999 117.752 91.8999 118.132 92.2899C118.512 92.6699 119.037 92.8599 119.707 92.8599C120.207 92.8599 120.632 92.7549 120.982 92.5449C121.342 92.3249 121.632 92.0349 121.852 91.6749L122.872 92.5749C122.612 93.0249 122.212 93.4049 121.672 93.7149C121.142 94.0249 120.477 94.1799 119.677 94.1799ZM119.557 87.3249C119.267 87.3249 118.997 87.3749 118.747 87.4749C118.507 87.5749 118.297 87.7199 118.117 87.9099C117.947 88.0899 117.812 88.3049 117.712 88.5549C117.612 88.8049 117.562 89.0799 117.562 89.3799L117.562 89.4849L121.447 89.4849L121.447 89.3349C121.447 88.7249 121.272 88.2399 120.922 87.8799C120.582 87.5099 120.127 87.3249 119.557 87.3249ZM125.146 92.6799L127.201 92.6799L127.201 87.5799L125.146 87.5799L125.146 86.2599L128.836 86.2599L128.836 88.3149L128.926 88.3149C128.996 88.0449 129.096 87.7849 129.226 87.5349C129.356 87.2849 129.521 87.0699 129.721 86.8899C129.921 86.6999 130.166 86.5499 130.456 86.4399C130.746 86.3199 131.086 86.2599 131.476 86.2599L132.406 86.2599L132.406 87.8199L130.876 87.8199C130.276 87.8199 129.786 87.9999 129.406 88.3599C129.026 88.7099 128.836 89.1849 128.836 89.7849L128.836 92.6799L131.641 92.6799L131.641 93.9999L125.146 93.9999L125.146 92.6799ZM140.38 93.9999C139.91 93.9999 139.555 93.8799 139.315 93.6399C139.085 93.3999 138.945 93.0849 138.895 92.6949L138.82 92.6949C138.67 93.1649 138.395 93.5299 137.995 93.7899C137.605 94.0499 137.105 94.1799 136.495 94.1799C135.705 94.1799 135.075 93.9749 134.605 93.5649C134.135 93.1449 133.9 92.5699 133.9 91.8399C133.9 91.0899 134.175 90.5199 134.725 90.1299C135.285 89.7299 136.14 89.5299 137.29 89.5299L138.775 89.5299L138.775 88.9299C138.775 87.8799 138.22 87.3549 137.11 87.3549C136.61 87.3549 136.205 87.4549 135.895 87.6549C135.585 87.8449 135.325 88.0999 135.115 88.4199L134.14 87.6249C134.36 87.2049 134.73 86.8449 135.25 86.5449C135.77 86.2349 136.44 86.0799 137.26 86.0799C138.24 86.0799 139.01 86.3149 139.57 86.7849C140.13 87.2549 140.41 87.9349 140.41 88.8249L140.41 92.7099L141.385 92.7099L141.385 93.9999L140.38 93.9999ZM136.96 92.9799C137.49 92.9799 137.925 92.8599 138.265 92.6199C138.605 92.3799 138.775 92.0699 138.775 91.6899L138.775 90.5649L137.32 90.5649C136.14 90.5649 135.55 90.9199 135.55 91.6299L135.55 91.9299C135.55 92.2799 135.675 92.5449 135.925 92.7249C136.175 92.8949 136.52 92.9799 136.96 92.9799ZM146.959 93.9999C146.279 93.9999 145.779 93.8199 145.459 93.4599C145.139 93.0899 144.979 92.6149 144.979 92.0349L144.979 87.5799L142.594 87.5799L142.594 86.2599L144.289 86.2599C144.579 86.2599 144.784 86.2049 144.904 86.0949C145.024 85.9749 145.084 85.7649 145.084 85.4649L145.084 83.5299L146.614 83.5299L146.614 86.2599L149.914 86.2599L149.914 87.5799L146.614 87.5799L146.614 92.6799L149.914 92.6799L149.914 93.9999L146.959 93.9999ZM155.488 94.1799C154.918 94.1799 154.403 94.0849 153.943 93.8949C153.493 93.7049 153.108 93.4349 152.788 93.0849C152.478 92.7349 152.238 92.3099 152.068 91.8099C151.898 91.3099 151.813 90.7499 151.813 90.1299C151.813 89.5099 151.898 88.9499 152.068 88.4499C152.238 87.9499 152.478 87.5249 152.788 87.1749C153.108 86.8249 153.493 86.5549 153.943 86.3649C154.403 86.1749 154.918 86.0799 155.488 86.0799C156.058 86.0799 156.568 86.1749 157.018 86.3649C157.478 86.5549 157.863 86.8249 158.173 87.1749C158.493 87.5249 158.738 87.9499 158.908 88.4499C159.078 88.9499 159.163 89.5099 159.163 90.1299C159.163 90.7499 159.078 91.3099 158.908 91.8099C158.738 92.3099 158.493 92.7349 158.173 93.0849C157.863 93.4349 157.478 93.7049 157.018 93.8949C156.568 94.0849 156.058 94.1799 155.488 94.1799ZM155.488 92.8899C156.088 92.8899 156.563 92.7099 156.913 92.3499C157.273 91.9799 157.453 91.4349 157.453 90.7149L157.453 89.5449C157.453 88.8249 157.273 88.2849 156.913 87.9249C156.563 87.5549 156.088 87.3699 155.488 87.3699C154.888 87.3699 154.408 87.5549 154.048 87.9249C153.698 88.2849 153.523 88.8249 153.523 89.5449L153.523 90.7149C153.523 91.4349 153.698 91.9799 154.048 92.3499C154.408 92.7099 154.888 92.8899 155.488 92.8899ZM161.122 92.6799L163.177 92.6799L163.177 87.5799L161.122 87.5799L161.122 86.2599L164.812 86.2599L164.812 88.3149L164.902 88.3149C164.972 88.0449 165.072 87.7849 165.202 87.5349C165.332 87.2849 165.497 87.0699 165.697 86.8899C165.897 86.6999 166.142 86.5499 166.432 86.4399C166.722 86.3199 167.062 86.2599 167.452 86.2599L168.382 86.2599L168.382 87.8199L166.852 87.8199C166.252 87.8199 165.762 87.9999 165.382 88.3599C165.002 88.7099 164.812 89.1849 164.812 89.7849L164.812 92.6799L167.617 92.6799L167.617 93.9999L161.122 93.9999L161.122 92.6799Z" fill="#1A0C6D"/>
<rect width="92.0482" height="92.0482" transform="matrix(-0.919755 0.392494 -0.919755 -0.392493 337.324 36.9999)" fill="#FFB800"/>
<path d="M221.523 43.18C220.863 43.18 220.288 43.06 219.798 42.82C219.318 42.57 218.918 42.215 218.598 41.755C218.288 41.295 218.058 40.73 217.908 40.06C217.758 39.39 217.683 38.625 217.683 37.765C217.683 36.915 217.758 36.155 217.908 35.485C218.058 34.805 218.288 34.235 218.598 33.775C218.918 33.315 219.318 32.965 219.798 32.725C220.288 32.475 220.863 32.35 221.523 32.35C222.183 32.35 222.753 32.475 223.233 32.725C223.723 32.965 224.123 33.315 224.433 33.775C224.753 34.235 224.988 34.805 225.138 35.485C225.288 36.155 225.363 36.915 225.363 37.765C225.363 38.625 225.288 39.39 225.138 40.06C224.988 40.73 224.753 41.295 224.433 41.755C224.123 42.215 223.723 42.57 223.233 42.82C222.753 43.06 222.183 43.18 221.523 43.18ZM221.523 41.785C222.273 41.785 222.803 41.505 223.113 40.945C223.423 40.375 223.578 39.605 223.578 38.635L223.578 36.88C223.578 35.92 223.423 35.16 223.113 34.6C222.803 34.03 222.273 33.745 221.523 33.745C220.773 33.745 220.243 34.03 219.933 34.6C219.623 35.16 219.468 35.92 219.468 36.88L219.468 38.65C219.468 39.61 219.623 40.375 219.933 40.945C220.243 41.505 220.773 41.785 221.523 41.785ZM227.203 35.26L228.838 35.26L228.838 36.58L228.928 36.58C229.158 36.11 229.463 35.745 229.843 35.485C230.223 35.215 230.698 35.08 231.268 35.08C232.178 35.08 232.903 35.42 233.443 36.1C233.983 36.78 234.253 37.79 234.253 39.13C234.253 40.47 233.983 41.48 233.443 42.16C232.903 42.84 232.178 43.18 231.268 43.18C230.698 43.18 230.223 43.05 229.843 42.79C229.463 42.52 229.158 42.15 228.928 41.68L228.838 41.68L228.838 46L227.203 46L227.203 35.26ZM230.593 41.845C231.213 41.845 231.688 41.655 232.018 41.275C232.358 40.895 232.528 40.39 232.528 39.76L232.528 38.5C232.528 37.87 232.358 37.365 232.018 36.985C231.688 36.605 231.213 36.415 230.593 36.415C230.353 36.415 230.128 36.445 229.918 36.505C229.708 36.565 229.523 36.655 229.363 36.775C229.203 36.895 229.073 37.045 228.973 37.225C228.883 37.395 228.838 37.6 228.838 37.84L228.838 40.42C228.838 40.66 228.883 40.87 228.973 41.05C229.073 41.22 229.203 41.365 229.363 41.485C229.523 41.605 229.708 41.695 229.918 41.755C230.128 41.815 230.353 41.845 230.593 41.845ZM239.677 43.18C239.087 43.18 238.557 43.085 238.087 42.895C237.617 42.705 237.222 42.435 236.902 42.085C236.582 41.735 236.337 41.315 236.167 40.825C235.997 40.325 235.912 39.765 235.912 39.145C235.912 38.525 235.997 37.965 236.167 37.465C236.347 36.965 236.592 36.54 236.902 36.19C237.222 35.83 237.607 35.555 238.057 35.365C238.507 35.175 239.007 35.08 239.557 35.08C240.097 35.08 240.587 35.175 241.027 35.365C241.467 35.545 241.842 35.805 242.152 36.145C242.462 36.485 242.697 36.89 242.857 37.36C243.027 37.83 243.112 38.35 243.112 38.92L243.112 39.535L237.562 39.535L237.562 39.79C237.562 40.4 237.752 40.9 238.132 41.29C238.512 41.67 239.037 41.86 239.707 41.86C240.207 41.86 240.632 41.755 240.982 41.545C241.342 41.325 241.632 41.035 241.852 40.675L242.872 41.575C242.612 42.025 242.212 42.405 241.672 42.715C241.142 43.025 240.477 43.18 239.677 43.18ZM239.557 36.325C239.267 36.325 238.997 36.375 238.747 36.475C238.507 36.575 238.297 36.72 238.117 36.91C237.947 37.09 237.812 37.305 237.712 37.555C237.612 37.805 237.562 38.08 237.562 38.38L237.562 38.485L241.447 38.485L241.447 38.335C241.447 37.725 241.272 37.24 240.922 36.88C240.582 36.51 240.127 36.325 239.557 36.325ZM245.146 41.68L247.201 41.68L247.201 36.58L245.146 36.58L245.146 35.26L248.836 35.26L248.836 37.315L248.926 37.315C248.996 37.045 249.096 36.785 249.226 36.535C249.356 36.285 249.521 36.07 249.721 35.89C249.921 35.7 250.166 35.55 250.456 35.44C250.746 35.32 251.086 35.26 251.476 35.26L252.406 35.26L252.406 36.82L250.876 36.82C250.276 36.82 249.786 37 249.406 37.36C249.026 37.71 248.836 38.185 248.836 38.785L248.836 41.68L251.641 41.68L251.641 43L245.146 43L245.146 41.68ZM260.38 43C259.91 43 259.555 42.88 259.315 42.64C259.085 42.4 258.945 42.085 258.895 41.695L258.82 41.695C258.67 42.165 258.395 42.53 257.995 42.79C257.605 43.05 257.105 43.18 256.495 43.18C255.705 43.18 255.075 42.975 254.605 42.565C254.135 42.145 253.9 41.57 253.9 40.84C253.9 40.09 254.175 39.52 254.725 39.13C255.285 38.73 256.14 38.53 257.29 38.53L258.775 38.53L258.775 37.93C258.775 36.88 258.22 36.355 257.11 36.355C256.61 36.355 256.205 36.455 255.895 36.655C255.585 36.845 255.325 37.1 255.115 37.42L254.14 36.625C254.36 36.205 254.73 35.845 255.25 35.545C255.77 35.235 256.44 35.08 257.26 35.08C258.24 35.08 259.01 35.315 259.57 35.785C260.13 36.255 260.41 36.935 260.41 37.825L260.41 41.71L261.385 41.71L261.385 43L260.38 43ZM256.96 41.98C257.49 41.98 257.925 41.86 258.265 41.62C258.605 41.38 258.775 41.07 258.775 40.69L258.775 39.565L257.32 39.565C256.14 39.565 255.55 39.92 255.55 40.63L255.55 40.93C255.55 41.28 255.675 41.545 255.925 41.725C256.175 41.895 256.52 41.98 256.96 41.98ZM266.959 43C266.279 43 265.779 42.82 265.459 42.46C265.139 42.09 264.979 41.615 264.979 41.035L264.979 36.58L262.594 36.58L262.594 35.26L264.289 35.26C264.579 35.26 264.784 35.205 264.904 35.095C265.024 34.975 265.084 34.765 265.084 34.465L265.084 32.53L266.614 32.53L266.614 35.26L269.914 35.26L269.914 36.58L266.614 36.58L266.614 41.68L269.914 41.68L269.914 43L266.959 43ZM275.488 43.18C274.918 43.18 274.403 43.085 273.943 42.895C273.493 42.705 273.108 42.435 272.788 42.085C272.478 41.735 272.238 41.31 272.068 40.81C271.898 40.31 271.813 39.75 271.813 39.13C271.813 38.51 271.898 37.95 272.068 37.45C272.238 36.95 272.478 36.525 272.788 36.175C273.108 35.825 273.493 35.555 273.943 35.365C274.403 35.175 274.918 35.08 275.488 35.08C276.058 35.08 276.568 35.175 277.018 35.365C277.478 35.555 277.863 35.825 278.173 36.175C278.493 36.525 278.738 36.95 278.908 37.45C279.078 37.95 279.163 38.51 279.163 39.13C279.163 39.75 279.078 40.31 278.908 40.81C278.738 41.31 278.493 41.735 278.173 42.085C277.863 42.435 277.478 42.705 277.018 42.895C276.568 43.085 276.058 43.18 275.488 43.18ZM275.488 41.89C276.088 41.89 276.563 41.71 276.913 41.35C277.273 40.98 277.453 40.435 277.453 39.715L277.453 38.545C277.453 37.825 277.273 37.285 276.913 36.925C276.563 36.555 276.088 36.37 275.488 36.37C274.888 36.37 274.408 36.555 274.048 36.925C273.698 37.285 273.523 37.825 273.523 38.545L273.523 39.715C273.523 40.435 273.698 40.98 274.048 41.35C274.408 41.71 274.888 41.89 275.488 41.89ZM281.122 41.68L283.177 41.68L283.177 36.58L281.122 36.58L281.122 35.26L284.812 35.26L284.812 37.315L284.902 37.315C284.972 37.045 285.072 36.785 285.202 36.535C285.332 36.285 285.497 36.07 285.697 35.89C285.897 35.7 286.142 35.55 286.432 35.44C286.722 35.32 287.062 35.26 287.452 35.26L288.382 35.26L288.382 36.82L286.852 36.82C286.252 36.82 285.762 37 285.382 37.36C285.002 37.71 284.812 38.185 284.812 38.785L284.812 41.68L287.617 41.68L287.617 43L281.122 43L281.122 41.68Z" fill="#1A0C6D"/>
<rect width="92.0482" height="92.0482" transform="matrix(-0.919755 0.392494 -0.919755 -0.392493 457.324 88)" fill="#FFB800"/>
<path d="M341.523 94.18C340.863 94.18 340.288 94.06 339.798 93.82C339.318 93.57 338.918 93.215 338.598 92.755C338.288 92.295 338.058 91.73 337.908 91.06C337.758 90.39 337.683 89.625 337.683 88.765C337.683 87.915 337.758 87.155 337.908 86.485C338.058 85.805 338.288 85.235 338.598 84.775C338.918 84.315 339.318 83.965 339.798 83.725C340.288 83.475 340.863 83.35 341.523 83.35C342.183 83.35 342.753 83.475 343.233 83.725C343.723 83.965 344.123 84.315 344.433 84.775C344.753 85.235 344.988 85.805 345.138 86.485C345.288 87.155 345.363 87.915 345.363 88.765C345.363 89.625 345.288 90.39 345.138 91.06C344.988 91.73 344.753 92.295 344.433 92.755C344.123 93.215 343.723 93.57 343.233 93.82C342.753 94.06 342.183 94.18 341.523 94.18ZM341.523 92.785C342.273 92.785 342.803 92.505 343.113 91.945C343.423 91.375 343.578 90.605 343.578 89.635L343.578 87.88C343.578 86.92 343.423 86.16 343.113 85.6C342.803 85.03 342.273 84.745 341.523 84.745C340.773 84.745 340.243 85.03 339.933 85.6C339.623 86.16 339.468 86.92 339.468 87.88L339.468 89.65C339.468 90.61 339.623 91.375 339.933 91.945C340.243 92.505 340.773 92.785 341.523 92.785ZM347.203 86.26L348.838 86.26L348.838 87.58L348.928 87.58C349.158 87.11 349.463 86.745 349.843 86.485C350.223 86.215 350.698 86.08 351.268 86.08C352.178 86.08 352.903 86.42 353.443 87.1C353.983 87.78 354.253 88.79 354.253 90.13C354.253 91.47 353.983 92.48 353.443 93.16C352.903 93.84 352.178 94.18 351.268 94.18C350.698 94.18 350.223 94.05 349.843 93.79C349.463 93.52 349.158 93.15 348.928 92.68L348.838 92.68L348.838 97L347.203 97L347.203 86.26ZM350.593 92.845C351.213 92.845 351.688 92.655 352.018 92.275C352.358 91.895 352.528 91.39 352.528 90.76L352.528 89.5C352.528 88.87 352.358 88.365 352.018 87.985C351.688 87.605 351.213 87.415 350.593 87.415C350.353 87.415 350.128 87.445 349.918 87.505C349.708 87.565 349.523 87.655 349.363 87.775C349.203 87.895 349.073 88.045 348.973 88.225C348.883 88.395 348.838 88.6 348.838 88.84L348.838 91.42C348.838 91.66 348.883 91.87 348.973 92.05C349.073 92.22 349.203 92.365 349.363 92.485C349.523 92.605 349.708 92.695 349.918 92.755C350.128 92.815 350.353 92.845 350.593 92.845ZM359.677 94.18C359.087 94.18 358.557 94.085 358.087 93.895C357.617 93.705 357.222 93.435 356.902 93.085C356.582 92.735 356.337 92.315 356.167 91.825C355.997 91.325 355.912 90.765 355.912 90.145C355.912 89.525 355.997 88.965 356.167 88.465C356.347 87.965 356.592 87.54 356.902 87.19C357.222 86.83 357.607 86.555 358.057 86.365C358.507 86.175 359.007 86.08 359.557 86.08C360.097 86.08 360.587 86.175 361.027 86.365C361.467 86.545 361.842 86.805 362.152 87.145C362.462 87.485 362.697 87.89 362.857 88.36C363.027 88.83 363.112 89.35 363.112 89.92L363.112 90.535L357.562 90.535L357.562 90.79C357.562 91.4 357.752 91.9 358.132 92.29C358.512 92.67 359.037 92.86 359.707 92.86C360.207 92.86 360.632 92.755 360.982 92.545C361.342 92.325 361.632 92.035 361.852 91.675L362.872 92.575C362.612 93.025 362.212 93.405 361.672 93.715C361.142 94.025 360.477 94.18 359.677 94.18ZM359.557 87.325C359.267 87.325 358.997 87.375 358.747 87.475C358.507 87.575 358.297 87.72 358.117 87.91C357.947 88.09 357.812 88.305 357.712 88.555C357.612 88.805 357.562 89.08 357.562 89.38L357.562 89.485L361.447 89.485L361.447 89.335C361.447 88.725 361.272 88.24 360.922 87.88C360.582 87.51 360.127 87.325 359.557 87.325ZM365.146 92.68L367.201 92.68L367.201 87.58L365.146 87.58L365.146 86.26L368.836 86.26L368.836 88.315L368.926 88.315C368.996 88.045 369.096 87.785 369.226 87.535C369.356 87.285 369.521 87.07 369.721 86.89C369.921 86.7 370.166 86.55 370.456 86.44C370.746 86.32 371.086 86.26 371.476 86.26L372.406 86.26L372.406 87.82L370.876 87.82C370.276 87.82 369.786 88 369.406 88.36C369.026 88.71 368.836 89.185 368.836 89.785L368.836 92.68L371.641 92.68L371.641 94L365.146 94L365.146 92.68ZM380.38 94C379.91 94 379.555 93.88 379.315 93.64C379.085 93.4 378.945 93.085 378.895 92.695L378.82 92.695C378.67 93.165 378.395 93.53 377.995 93.79C377.605 94.05 377.105 94.18 376.495 94.18C375.705 94.18 375.075 93.975 374.605 93.565C374.135 93.145 373.9 92.57 373.9 91.84C373.9 91.09 374.175 90.52 374.725 90.13C375.285 89.73 376.14 89.53 377.29 89.53L378.775 89.53L378.775 88.93C378.775 87.88 378.22 87.355 377.11 87.355C376.61 87.355 376.205 87.455 375.895 87.655C375.585 87.845 375.325 88.1 375.115 88.42L374.14 87.625C374.36 87.205 374.73 86.845 375.25 86.545C375.77 86.235 376.44 86.08 377.26 86.08C378.24 86.08 379.01 86.315 379.57 86.785C380.13 87.255 380.41 87.935 380.41 88.825L380.41 92.71L381.385 92.71L381.385 94L380.38 94ZM376.96 92.98C377.49 92.98 377.925 92.86 378.265 92.62C378.605 92.38 378.775 92.07 378.775 91.69L378.775 90.565L377.32 90.565C376.14 90.565 375.55 90.92 375.55 91.63L375.55 91.93C375.55 92.28 375.675 92.545 375.925 92.725C376.175 92.895 376.52 92.98 376.96 92.98ZM386.959 94C386.279 94 385.779 93.82 385.459 93.46C385.139 93.09 384.979 92.615 384.979 92.035L384.979 87.58L382.594 87.58L382.594 86.26L384.289 86.26C384.579 86.26 384.784 86.205 384.904 86.095C385.024 85.975 385.084 85.765 385.084 85.465L385.084 83.53L386.614 83.53L386.614 86.26L389.914 86.26L389.914 87.58L386.614 87.58L386.614 92.68L389.914 92.68L389.914 94L386.959 94ZM395.488 94.18C394.918 94.18 394.403 94.085 393.943 93.895C393.493 93.705 393.108 93.435 392.788 93.085C392.478 92.735 392.238 92.31 392.068 91.81C391.898 91.31 391.813 90.75 391.813 90.13C391.813 89.51 391.898 88.95 392.068 88.45C392.238 87.95 392.478 87.525 392.788 87.175C393.108 86.825 393.493 86.555 393.943 86.365C394.403 86.175 394.918 86.08 395.488 86.08C396.058 86.08 396.568 86.175 397.018 86.365C397.478 86.555 397.863 86.825 398.173 87.175C398.493 87.525 398.738 87.95 398.908 88.45C399.078 88.95 399.163 89.51 399.163 90.13C399.163 90.75 399.078 91.31 398.908 91.81C398.738 92.31 398.493 92.735 398.173 93.085C397.863 93.435 397.478 93.705 397.018 93.895C396.568 94.085 396.058 94.18 395.488 94.18ZM395.488 92.89C396.088 92.89 396.563 92.71 396.913 92.35C397.273 91.98 397.453 91.435 397.453 90.715L397.453 89.545C397.453 88.825 397.273 88.285 396.913 87.925C396.563 87.555 396.088 87.37 395.488 87.37C394.888 87.37 394.408 87.555 394.048 87.925C393.698 88.285 393.523 88.825 393.523 89.545L393.523 90.715C393.523 91.435 393.698 91.98 394.048 92.35C394.408 92.71 394.888 92.89 395.488 92.89ZM401.122 92.68L403.177 92.68L403.177 87.58L401.122 87.58L401.122 86.26L404.812 86.26L404.812 88.315L404.902 88.315C404.972 88.045 405.072 87.785 405.202 87.535C405.332 87.285 405.497 87.07 405.697 86.89C405.897 86.7 406.142 86.55 406.432 86.44C406.722 86.32 407.062 86.26 407.452 86.26L408.382 86.26L408.382 87.82L406.852 87.82C406.252 87.82 405.762 88 405.382 88.36C405.002 88.71 404.812 89.185 404.812 89.785L404.812 92.68L407.617 92.68L407.617 94L401.122 94L401.122 92.68Z" fill="#1A0C6D"/>
<rect width="92.0482" height="92.0482" transform="matrix(-0.919755 0.392494 -0.919755 -0.392493 457.324 500.344)" fill="#8986FF"/>
<path d="M348.407 506L346.742 506L346.742 495.53L350.657 495.53C351.657 495.53 352.417 495.81 352.937 496.37C353.467 496.93 353.732 497.7 353.732 498.68C353.732 499.48 353.537 500.14 353.147 500.66C352.757 501.18 352.197 501.5 351.467 501.62L353.882 506L352.022 506L349.802 501.77L348.407 501.77L348.407 506ZM350.417 500.42C351.457 500.42 351.977 499.945 351.977 498.995L351.977 498.35C351.977 497.4 351.457 496.925 350.417 496.925L348.407 496.925L348.407 500.42L350.417 500.42ZM358.977 506.18C358.407 506.18 357.892 506.085 357.432 505.895C356.982 505.705 356.597 505.435 356.277 505.085C355.967 504.735 355.727 504.31 355.557 503.81C355.387 503.31 355.302 502.75 355.302 502.13C355.302 501.51 355.387 500.95 355.557 500.45C355.727 499.95 355.967 499.525 356.277 499.175C356.597 498.825 356.982 498.555 357.432 498.365C357.892 498.175 358.407 498.08 358.977 498.08C359.547 498.08 360.057 498.175 360.507 498.365C360.967 498.555 361.352 498.825 361.662 499.175C361.982 499.525 362.227 499.95 362.397 500.45C362.567 500.95 362.652 501.51 362.652 502.13C362.652 502.75 362.567 503.31 362.397 503.81C362.227 504.31 361.982 504.735 361.662 505.085C361.352 505.435 360.967 505.705 360.507 505.895C360.057 506.085 359.547 506.18 358.977 506.18ZM358.977 504.89C359.577 504.89 360.052 504.71 360.402 504.35C360.762 503.98 360.942 503.435 360.942 502.715L360.942 501.545C360.942 500.825 360.762 500.285 360.402 499.925C360.052 499.555 359.577 499.37 358.977 499.37C358.377 499.37 357.897 499.555 357.537 499.925C357.187 500.285 357.012 500.825 357.012 501.545L357.012 502.715C357.012 503.435 357.187 503.98 357.537 504.35C357.897 504.71 358.377 504.89 358.977 504.89ZM364.596 504.68L367.161 504.68L367.161 496.22L364.596 496.22L364.596 494.9L368.796 494.9L368.796 504.68L371.361 504.68L371.361 506L364.596 506L364.596 504.68ZM373.59 504.68L376.155 504.68L376.155 496.22L373.59 496.22L373.59 494.9L377.79 494.9L377.79 504.68L380.355 504.68L380.355 506L373.59 506L373.59 504.68ZM387.564 504.68L387.489 504.68C387.409 504.88 387.304 505.075 387.174 505.265C387.054 505.445 386.904 505.605 386.724 505.745C386.544 505.875 386.334 505.98 386.094 506.06C385.854 506.14 385.574 506.18 385.254 506.18C384.474 506.18 383.844 505.925 383.364 505.415C382.884 504.905 382.644 504.18 382.644 503.24L382.644 498.26L384.279 498.26L384.279 503C384.279 504.23 384.814 504.845 385.884 504.845C386.094 504.845 386.299 504.82 386.499 504.77C386.699 504.71 386.879 504.625 387.039 504.515C387.199 504.405 387.324 504.27 387.414 504.11C387.514 503.94 387.564 503.74 387.564 503.51L387.564 498.26L389.199 498.26L389.199 506L387.564 506L387.564 504.68ZM391.638 498.26L393.273 498.26L393.273 499.58L393.363 499.58C393.593 499.11 393.898 498.745 394.278 498.485C394.658 498.215 395.133 498.08 395.703 498.08C396.613 498.08 397.338 498.42 397.878 499.1C398.418 499.78 398.688 500.79 398.688 502.13C398.688 503.47 398.418 504.48 397.878 505.16C397.338 505.84 396.613 506.18 395.703 506.18C395.133 506.18 394.658 506.05 394.278 505.79C393.898 505.52 393.593 505.15 393.363 504.68L393.273 504.68L393.273 509L391.638 509L391.638 498.26ZM395.028 504.845C395.648 504.845 396.123 504.655 396.453 504.275C396.793 503.895 396.963 503.39 396.963 502.76L396.963 501.5C396.963 500.87 396.793 500.365 396.453 499.985C396.123 499.605 395.648 499.415 395.028 499.415C394.788 499.415 394.563 499.445 394.353 499.505C394.143 499.565 393.958 499.655 393.798 499.775C393.638 499.895 393.508 500.045 393.408 500.225C393.318 500.395 393.273 500.6 393.273 500.84L393.273 503.42C393.273 503.66 393.318 503.87 393.408 504.05C393.508 504.22 393.638 504.365 393.798 504.485C393.958 504.605 394.143 504.695 394.353 504.755C394.563 504.815 394.788 504.845 395.028 504.845Z" fill="#1A0C6D"/>
<rect width="92.0482" height="92.0482" transform="matrix(-0.919755 0.392494 -0.919755 -0.392493 217.324 500.344)" fill="#8986FF"/>
<path d="M108.407 506L106.742 506L106.742 495.53L110.657 495.53C111.657 495.53 112.417 495.81 112.937 496.37C113.467 496.93 113.732 497.7 113.732 498.68C113.732 499.48 113.537 500.14 113.147 500.66C112.757 501.18 112.197 501.5 111.467 501.62L113.882 506L112.022 506L109.802 501.77L108.407 501.77L108.407 506ZM110.417 500.42C111.457 500.42 111.977 499.945 111.977 498.995L111.977 498.35C111.977 497.4 111.457 496.925 110.417 496.925L108.407 496.925L108.407 500.42L110.417 500.42ZM118.977 506.18C118.407 506.18 117.892 506.085 117.432 505.895C116.982 505.705 116.597 505.435 116.277 505.085C115.967 504.735 115.727 504.31 115.557 503.81C115.387 503.31 115.302 502.75 115.302 502.13C115.302 501.51 115.387 500.95 115.557 500.45C115.727 499.95 115.967 499.525 116.277 499.175C116.597 498.825 116.982 498.555 117.432 498.365C117.892 498.175 118.407 498.08 118.977 498.08C119.547 498.08 120.057 498.175 120.507 498.365C120.967 498.555 121.352 498.825 121.662 499.175C121.982 499.525 122.227 499.95 122.397 500.45C122.567 500.95 122.652 501.51 122.652 502.13C122.652 502.75 122.567 503.31 122.397 503.81C122.227 504.31 121.982 504.735 121.662 505.085C121.352 505.435 120.967 505.705 120.507 505.895C120.057 506.085 119.547 506.18 118.977 506.18ZM118.977 504.89C119.577 504.89 120.052 504.71 120.402 504.35C120.762 503.98 120.942 503.435 120.942 502.715L120.942 501.545C120.942 500.825 120.762 500.285 120.402 499.925C120.052 499.555 119.577 499.37 118.977 499.37C118.377 499.37 117.897 499.555 117.537 499.925C117.187 500.285 117.012 500.825 117.012 501.545L117.012 502.715C117.012 503.435 117.187 503.98 117.537 504.35C117.897 504.71 118.377 504.89 118.977 504.89ZM124.596 504.68L127.161 504.68L127.161 496.22L124.596 496.22L124.596 494.9L128.796 494.9L128.796 504.68L131.361 504.68L131.361 506L124.596 506L124.596 504.68ZM133.59 504.68L136.155 504.68L136.155 496.22L133.59 496.22L133.59 494.9L137.79 494.9L137.79 504.68L140.355 504.68L140.355 506L133.59 506L133.59 504.68ZM147.564 504.68L147.489 504.68C147.409 504.88 147.304 505.075 147.174 505.265C147.054 505.445 146.904 505.605 146.724 505.745C146.544 505.875 146.334 505.98 146.094 506.06C145.854 506.14 145.574 506.18 145.254 506.18C144.474 506.18 143.844 505.925 143.364 505.415C142.884 504.905 142.644 504.18 142.644 503.24L142.644 498.26L144.279 498.26L144.279 503C144.279 504.23 144.814 504.845 145.884 504.845C146.094 504.845 146.299 504.82 146.499 504.77C146.699 504.71 146.879 504.625 147.039 504.515C147.199 504.405 147.324 504.27 147.414 504.11C147.514 503.94 147.564 503.74 147.564 503.51L147.564 498.26L149.199 498.26L149.199 506L147.564 506L147.564 504.68ZM151.638 498.26L153.273 498.26L153.273 499.58L153.363 499.58C153.593 499.11 153.898 498.745 154.278 498.485C154.658 498.215 155.133 498.08 155.703 498.08C156.613 498.08 157.338 498.42 157.878 499.1C158.418 499.78 158.688 500.79 158.688 502.13C158.688 503.47 158.418 504.48 157.878 505.16C157.338 505.84 156.613 506.18 155.703 506.18C155.133 506.18 154.658 506.05 154.278 505.79C153.898 505.52 153.593 505.15 153.363 504.68L153.273 504.68L153.273 509L151.638 509L151.638 498.26ZM155.028 504.845C155.648 504.845 156.123 504.655 156.453 504.275C156.793 503.895 156.963 503.39 156.963 502.76L156.963 501.5C156.963 500.87 156.793 500.365 156.453 499.985C156.123 499.605 155.648 499.415 155.028 499.415C154.788 499.415 154.563 499.445 154.353 499.505C154.143 499.565 153.958 499.655 153.798 499.775C153.638 499.895 153.508 500.045 153.408 500.225C153.318 500.395 153.273 500.6 153.273 500.84L153.273 503.42C153.273 503.66 153.318 503.87 153.408 504.05C153.508 504.22 153.638 504.365 153.798 504.485C153.958 504.605 154.143 504.695 154.353 504.755C154.563 504.815 154.788 504.845 155.028 504.845Z" fill="#1A0C6D"/>
</svg>
